<?xml version="1.0" encoding="UTF-8"?>
<svg version="1.1" xmlns="http://www.w3.org/2000/svg" width="313" height="340">
<path d="M0 0 C1.43713717 1.20516883 2.85323988 2.43575869 4.25 3.6875 C5.48169922 4.76257812 5.48169922 4.76257812 6.73828125 5.859375 C18.34828923 16.6413551 27.20878961 33.18603266 28.44287109 49.18847656 C29.16133604 72.72800095 25.08429225 90.54208817 9.25 108.6875 C8.73050781 109.30238281 8.21101563 109.91726562 7.67578125 110.55078125 C-2.69388371 121.9130086 -18.93678 129.79203205 -34.28271484 130.86450195 C-57.31853097 131.39157487 -77.23960424 128.00400514 -94.75 111.6875 C-108.24916236 98.56331437 -116.67296519 81.08196556 -117.04150391 62.18505859 C-117.12352378 50.96359492 -116.9977449 38.54505307 -110.75 28.6875 C-105.45437486 26.92229162 -99.79194404 27.50285962 -94.25 27.5 C-93.00089844 27.48775391 -91.75179687 27.47550781 -90.46484375 27.46289062 C-89.26988281 27.46095703 -88.07492188 27.45902344 -86.84375 27.45703125 C-85.19922852 27.45086792 -85.19922852 27.45086792 -83.52148438 27.44458008 C-80.75 27.6875 -80.75 27.6875 -77.75 29.6875 C-77.38923645 31.90213013 -77.38923645 31.90213013 -77.40942383 34.68798828 C-77.40976372 36.24938034 -77.40976372 36.24938034 -77.41011047 37.84231567 C-77.42559433 38.96942963 -77.44107819 40.09654358 -77.45703125 41.2578125 C-77.46127609 42.40917694 -77.46552094 43.56054138 -77.46989441 44.74679565 C-77.48672948 48.43559855 -77.52439126 52.12386136 -77.5625 55.8125 C-77.57754056 58.30858588 -77.59123005 60.80468029 -77.60351562 63.30078125 C-77.63664893 69.42989659 -77.68846493 75.55860664 -77.75 81.6875 C-67.355 81.1925 -67.355 81.1925 -56.75 80.6875 C-57.843125 79.3675 -58.93625 78.0475 -60.0625 76.6875 C-64.19701609 71.32856332 -67.17159076 66.50557286 -66.75 59.5625 C-65.9303106 55.08505683 -64.06178617 52.77850043 -60.75 49.6875 C-54.9473711 46.72171189 -49.71270456 48.035705 -43.625 49.375 C-40.70088288 49.90066442 -40.70088288 49.90066442 -37.875 48.6875 C-33.83283846 47.39400831 -30.80368819 47.46816351 -26.75 48.6875 C-22.59605271 51.14909839 -20.51092076 53.34964136 -19.1875 57.9375 C-18.37936662 63.13878399 -19.18038873 67.10386908 -21.75 71.6875 C-26.89439334 78.4971918 -34.00460732 86.81480366 -41.75 90.6875 C-44.77724045 90.79902301 -47.78077097 90.85162715 -50.80859375 90.85546875 C-51.70868668 90.85879715 -52.6087796 90.86212555 -53.53614807 90.86555481 C-55.44181812 90.87062245 -57.34749705 90.87296319 -59.25317383 90.87280273 C-62.17218616 90.87498853 -65.09082024 90.89314399 -68.00976562 90.91210938 C-69.8593737 90.91504343 -71.70898358 90.91702815 -73.55859375 90.91796875 C-74.43366074 90.92515427 -75.30872772 90.93233978 -76.21031189 90.93974304 C-77.02448074 90.93666641 -77.8386496 90.93358978 -78.67749023 90.93041992 C-79.39315659 90.93184494 -80.10882294 90.93326996 -80.84617615 90.93473816 C-82.75 90.6875 -82.75 90.6875 -85.75 88.6875 C-86.11076355 86.43490601 -86.11076355 86.43490601 -86.09057617 83.59521484 C-86.09034958 82.53426605 -86.09012299 81.47331726 -86.08988953 80.38021851 C-86.07440567 79.23123077 -86.05892181 78.08224304 -86.04296875 76.8984375 C-86.03872391 75.72487701 -86.03447906 74.55131653 -86.03010559 73.3421936 C-86.01326976 69.58206546 -85.97560777 65.82246703 -85.9375 62.0625 C-85.92245954 59.51823689 -85.90877003 56.9739654 -85.89648438 54.4296875 C-85.86335005 48.18208656 -85.81153347 41.93488318 -85.75 35.6875 C-91.69 36.0175 -97.63 36.3475 -103.75 36.6875 C-109.66518797 55.46179225 -108.46148501 72.92317085 -99.75 90.6875 C-90.83307631 105.65891078 -76.74632119 115.54905778 -60.1875 120.5625 C-43.44113324 124.51003301 -25.95014232 122.49503017 -11.125 113.5 C3.44065546 103.6356512 15.34947755 89.52074465 18.94140625 71.8203125 C21.57443491 53.6224182 18.83626681 36.8568756 8.3671875 21.4453125 C-2.94347035 6.71224157 -17.52511309 -2.2038889 -36.078125 -4.7734375 C-54.32810433 -6.58235616 -71.38580967 -1.72479121 -85.75 9.6875 C-88.52970056 12.27410343 -91.08016005 15.04432252 -93.56640625 17.9140625 C-95.75 19.6875 -95.75 19.6875 -98.52734375 19.4609375 C-99.26082031 19.20570312 -99.99429688 18.95046875 -100.75 18.6875 C-101.4375 17 -101.4375 17 -101.75 14.6875 C-96.5230883 2.60026669 -81.27710384 -5.59006195 -69.75 -10.3125 C-45.91565616 -18.54618242 -20.36249565 -15.12031201 0 0 Z M-57.75 58.6875 C-57.49647219 65.78627874 -55.40891374 69.42325176 -50.75 74.6875 C-50.22535156 75.30496094 -49.70070313 75.92242187 -49.16015625 76.55859375 C-47.49318028 78.4689803 -47.49318028 78.4689803 -44.75 80.6875 C-39.289556 80.31749045 -35.29665098 75.42909102 -31.75 71.6875 C-28.87781181 67.85579761 -26.50121448 64.63631994 -27.125 59.75 C-29.19348597 57.12461396 -30.45484607 56.30055189 -33.75 55.6875 C-36.64881256 57.00514207 -38.31062668 57.80875337 -39.75 60.6875 C-42.5625 60.9375 -42.5625 60.9375 -45.75 60.6875 C-46.79625409 59.39014493 -47.79701223 58.05483028 -48.75 56.6875 C-52.86654683 55.10421276 -54.5680671 55.74126584 -57.75 58.6875 Z " fill="#85D163" transform="translate(202.75,56.3125)"/>
<path d="M0 0 C0.89094864 -0.00622879 1.78189728 -0.01245758 2.69984436 -0.01887512 C4.13124001 -0.0050605 4.13124001 -0.0050605 5.59155273 0.0090332 C7.07062355 0.00828545 7.07062355 0.00828545 8.57957458 0.00752258 C10.66163145 0.00986083 12.74369126 0.01957462 14.82568359 0.03613281 C18.01677642 0.0597525 21.20703517 0.05668837 24.39819336 0.05004883 C26.42098481 0.05562479 28.44377274 0.06273415 30.46655273 0.0715332 C31.42284073 0.0706218 32.37912872 0.06971039 33.36439514 0.06877136 C34.25219162 0.07830338 35.1399881 0.08783539 36.0546875 0.09765625 C37.22572777 0.10456734 37.22572777 0.10456734 38.42042542 0.11161804 C40.46264648 0.37231445 40.46264648 0.37231445 43.46264648 2.37231445 C42.96847175 9.9312221 41.80980412 17.0558612 39.99389648 24.40356445 C39.75352661 25.40190308 39.51315674 26.4002417 39.26550293 27.42883301 C38.50515137 30.57847302 37.733936 33.72533733 36.96264648 36.87231445 C36.44503389 39.0127738 35.92810078 41.15339758 35.41186523 43.29418945 C34.46854553 47.19164167 33.52448195 51.08889074 32.57006836 54.98364258 C32.37989136 55.76098755 32.18971436 56.53833252 31.99377441 57.3392334 C31.55053246 59.03589963 31.01718591 60.70869618 30.46264648 62.37231445 C26.34402358 64.43162591 20.98905603 63.55720707 16.46264648 63.55981445 C15.34374023 63.57206055 14.22483398 63.58430664 13.07202148 63.59692383 C11.47100586 63.59982422 11.47100586 63.59982422 9.83764648 63.6027832 C8.85538086 63.60689209 7.87311523 63.61100098 6.86108398 63.61523438 C4.46264648 63.37231445 4.46264648 63.37231445 2.46264648 61.37231445 C2.21264648 58.87231445 2.21264648 58.87231445 2.46264648 56.37231445 C4.46264648 54.37231445 4.46264648 54.37231445 6.52563477 54.14526367 C7.35305176 54.1557373 8.18046875 54.16621094 9.03295898 54.17700195 C9.92885742 54.18344727 10.82475586 54.18989258 11.74780273 54.1965332 C12.68495117 54.21329102 13.62209961 54.23004883 14.58764648 54.24731445 C15.5325293 54.25633789 16.47741211 54.26536133 17.45092773 54.2746582 C19.78841941 54.29826923 22.12540772 54.33119929 24.46264648 54.37231445 C24.60186523 52.61274414 24.60186523 52.61274414 24.74389648 50.81762695 C25.51983173 43.83694191 27.30862276 37.06004155 28.96264648 30.24731445 C29.44729147 28.24046783 29.93026565 26.23326308 30.4095459 24.22512817 C30.84344653 22.40855125 31.28276144 20.59327003 31.72241211 18.77807617 C32.46933261 15.34155208 32.96530177 11.85372743 33.46264648 8.37231445 C20.26264648 8.37231445 7.06264648 8.37231445 -6.53735352 8.37231445 C-7.19735352 6.72231445 -7.85735352 5.07231445 -8.53735352 3.37231445 C-5.61655312 0.85938281 -3.84992784 -0.0031008 0 0 Z " fill="#81D35D" transform="translate(167.537353515625,83.627685546875)"/>
<path d="M0 0 C3 0 6 0 9 0 C9.66773438 -0.05800781 10.33546875 -0.11601562 11.0234375 -0.17578125 C17.30216329 -0.54082345 17.30216329 -0.54082345 20.5 1.9375 C22.47363895 5.96701286 23.22123576 9.51207459 23 14 C21.69897535 17.40744551 20.56327022 19.43672978 18 22 C14.98173347 22.27240673 12.03629378 22.08675125 9 22 C8.67 25.3 8.34 28.6 8 32 C5.36 32 2.72 32 0 32 C0 21.44 0 10.88 0 0 Z M10 5 C7.81668311 6.76136355 7.81668311 6.76136355 7.8046875 8.9453125 C7.83949219 10.02425781 7.83949219 10.02425781 7.875 11.125 C7.91625 12.40375 7.9575 13.6825 8 15 C9.98 15.99 9.98 15.99 12 17 C13.62493901 15.87890434 13.62493901 15.87890434 15 14 C15.41062354 10.71501168 15.6171336 8.84154581 13.625 6.125 C12.05533986 4.81026334 12.05533986 4.81026334 10 5 Z " fill="#010107" transform="translate(162,216)"/>
<path d="M0 0 C2.64 0 5.28 0 8 0 C8 2.97 8 5.94 8 9 C8.67546875 8.95359375 9.3509375 8.9071875 10.046875 8.859375 C10.93890625 8.82328125 11.8309375 8.7871875 12.75 8.75 C13.63171875 8.70359375 14.5134375 8.6571875 15.421875 8.609375 C18 9 18 9 20.3125 10.4375 C22.84440748 14.28224839 22.43252199 17.75715106 22.25 22.25 C22.23195312 23.09046875 22.21390625 23.9309375 22.1953125 24.796875 C22.14830798 26.86507395 22.07656724 28.93268441 22 31 C19.36 31 16.72 31 14 31 C13.67 25.72 13.34 20.44 13 15 C11.68 15.33 10.36 15.66 9 16 C7.94931357 19.15205929 7.93036614 21.32609576 8 24.625 C8.03761201 26.41627183 8.04667254 28.20894134 8 30 C7.67 30.33 7.34 30.66 7 31 C4.69 31 2.38 31 0 31 C0 20.77 0 10.54 0 0 Z " fill="#1A110E" transform="translate(110,207)"/>
<path d="M0 0 C7.26 0 14.52 0 22 0 C20.875 7.875 20.875 7.875 18.49609375 10.96484375 C18.00302734 11.61904297 17.50996094 12.27324219 17.00195312 12.94726562 C16.48568359 13.60404297 15.96941406 14.26082031 15.4375 14.9375 C14.91736328 15.62134766 14.39722656 16.30519531 13.86132812 17.00976562 C12.58632575 18.68247516 11.29480135 20.34256895 10 22 C10.85464844 22.06058594 11.70929688 22.12117188 12.58984375 22.18359375 C13.69457031 22.26738281 14.79929688 22.35117188 15.9375 22.4375 C17.59072266 22.55931641 17.59072266 22.55931641 19.27734375 22.68359375 C22 23 22 23 23 24 C23 25.65 23 27.3 23 29 C15.08 29 7.16 29 -1 29 C-1 23.37635171 -1 23.37635171 1.37109375 20.30078125 C1.86287109 19.64916016 2.35464844 18.99753906 2.86132812 18.32617188 C3.6415332 17.3294043 3.6415332 17.3294043 4.4375 16.3125 C5.45801948 14.97601444 6.47759578 13.63880799 7.49609375 12.30078125 C7.95169678 11.71466064 8.4072998 11.12854004 8.87670898 10.5246582 C10.07990091 8.98226671 10.07990091 8.98226671 11 7 C7.37 6.67 3.74 6.34 0 6 C0 4.02 0 2.04 0 0 Z " fill="#030103" transform="translate(210,209)"/>
<path d="M0 0 C5.94 0 11.88 0 18 0 C18 1.65 18 3.3 18 5 C14.7 5 11.4 5 8 5 C8 6.98 8 8.96 8 11 C11.3 11 14.6 11 18 11 C18 12.65 18 14.3 18 16 C14.7 16 11.4 16 8 16 C8 18.31 8 20.62 8 23 C11.3 23 14.6 23 18 23 C18 24.98 18 26.96 18 29 C12.06 29 6.12 29 0 29 C0 19.43 0 9.86 0 0 Z " fill="#211B1C" transform="translate(189,209)"/>
<path d="M0 0 C1.56427734 0.03673828 1.56427734 0.03673828 3.16015625 0.07421875 C5.9375 0.3125 5.9375 0.3125 8.9375 1.3125 C8.6075 3.2925 8.2775 5.2725 7.9375 7.3125 C4.3075 6.9825 0.6775 6.6525 -3.0625 6.3125 C-0.92850707 10.58048586 -0.58962897 10.82717457 3.4375 12.625 C7.0278202 14.50702268 7.79250142 15.02250284 9.6875 18.8125 C9.97595587 22.85088221 9.49200791 24.22947321 6.9375 27.3125 C3.34139031 29.70990646 1.63657673 29.55237692 -2.625 29.5 C-3.78128906 29.49355469 -4.93757813 29.48710937 -6.12890625 29.48046875 C-9.0625 29.3125 -9.0625 29.3125 -11.0625 28.3125 C-11.0625 26.0025 -11.0625 23.6925 -11.0625 21.3125 C-10.381875 21.4775 -9.70125 21.6425 -9 21.8125 C-5.6460178 22.38339059 -2.45860195 22.37909023 0.9375 22.3125 C0.26056181 19.21953819 0.26056181 19.21953819 -2.05859375 18.06640625 C-3.68306859 17.27366253 -5.30806728 16.48199135 -6.93359375 15.69140625 C-9.3749207 14.1101431 -10.11319554 13.03453876 -11.0625 10.3125 C-10.91748781 6.83220748 -10.52802648 4.91475453 -8.38671875 2.14453125 C-5.40271879 -0.20756284 -3.75436342 -0.13491517 0 0 Z " fill="#0B0809" transform="translate(97.0625,208.6875)"/>
<path d="M0 0 C4.11254051 2.71582864 6.92332015 5.09512511 8 10 C7.798045 14.8469201 6.57380549 17.70110263 3 21 C-1.26926502 23.0418224 -4.22525043 23.203213 -8.8125 22 C-12.60604284 19.61973783 -13.7094276 18.27502106 -15 14 C-15.29417279 9.3116212 -14.59187959 6.71329078 -11.5625 3.0625 C-7.5403235 -0.17486157 -5.18961389 -0.51896139 0 0 Z M-6 9 C-6 10.32 -6 11.64 -6 13 C-4.02 13.495 -4.02 13.495 -2 14 C-1.67 12.68 -1.34 11.36 -1 10 C-2.65 9.67 -4.3 9.34 -6 9 Z " fill="#7FD85A" transform="translate(140,148)"/>
<path d="M0 0 C4.00591167 2.11633069 6.35523273 3.77611411 8 8 C8.32625914 11.79955959 8.07909173 15.50614337 5.80078125 18.66015625 C2.49276058 21.6382431 -0.58578797 23 -5 23 C-9.13077554 21.46108362 -11.83034376 19.88254275 -14 16 C-15.31965215 12.5123479 -15.01688158 11.05345834 -13.875 7.4375 C-10.4654002 1.18656704 -7.18839643 -1.00889774 0 0 Z M-5 9 C-5.33 10.32 -5.66 11.64 -6 13 C-4.68 13.33 -3.36 13.66 -2 14 C-1.67 12.35 -1.34 10.7 -1 9 C-2.32 9 -3.64 9 -5 9 Z " fill="#77CF52" transform="translate(180,148)"/>
<path d="M0 0 C3.25442401 1.2882095 4.49223523 2.21527264 6.375 5.125 C7.57638754 10.65138268 7.09015251 15.21941757 4.125 20.0625 C-0.4928925 22.92559335 -4.70495173 22.88250804 -10 22 C-13.00197464 20.19881522 -14.45166366 19.09667268 -16 16 C-16.53118252 11.08003072 -16.75105553 7.22672403 -14.125 2.9375 C-9.88579684 -0.92765582 -5.50481443 -0.47679495 0 0 Z M-7.6875 6.625 C-9.26101354 9.00378044 -9.26101354 9.00378044 -8.9375 12.125 C-8.29127163 15.11321259 -8.29127163 15.11321259 -5.9375 16.375 C-5.298125 16.58125 -4.65875 16.7875 -4 17 C-2.37506099 15.87890434 -2.37506099 15.87890434 -1 14 C-0.58937646 10.71501168 -0.3828664 8.84154581 -2.375 6.125 C-4.81920456 4.43285838 -5.54613308 4.56294297 -7.6875 6.625 Z " fill="#070609" transform="translate(152,216)"/>
<path d="M0 0 C2.4375 1.9375 2.4375 1.9375 4 4 C4 7.38023517 3.12544378 9.83468937 2 13 C1.34 13 0.68 13 0 13 C-0.4125 12.030625 -0.825 11.06125 -1.25 10.0625 C-2.65789632 6.95411211 -2.65789632 6.95411211 -4.9375 6 C-7.53134235 6 -8.84739269 6.56492846 -11 8 C-11.99 9.485 -11.99 9.485 -13 11 C-15.9375 11.4375 -15.9375 11.4375 -19 11 C-20.04625409 9.70264493 -21.04701223 8.36733028 -22 7 C-24.45286596 6.00922702 -24.45286596 6.00922702 -27 6 C-27.99 6.66 -28.98 7.32 -30 8 C-30.2502157 11.08365871 -30.2502157 11.08365871 -30 14 C-32.375 14.1875 -32.375 14.1875 -35 14 C-37.36086122 10.45870816 -37.57269578 9.17249782 -37 5 C-34.66162213 0.64577914 -34.66162213 0.64577914 -32 -1 C-26.7809876 -1.86856557 -22.45608371 -1.97072247 -18 1 C-15.94290404 1.24055468 -15.94290404 1.24055468 -13.8125 1.125 C-12.554375 1.08375 -11.29625 1.0425 -10 1 C-10 0.34 -10 -0.32 -10 -1 C-5.96877462 -2.34374179 -3.94393885 -1.4530301 0 0 Z " fill="#7DD359" transform="translate(176,107)"/>
<path d="M0 0 C-0.33 1.32 -0.66 2.64 -1 4 C-1.66 4 -2.32 4 -3 4 C-3 3.34 -3 2.68 -3 2 C-7.85685781 4.84712354 -9.17720404 9.15761395 -10.6875 14.375 C-11.07212442 17.60584514 -11.02488376 20.76213513 -10.9375 24.01171875 C-11 26 -11 26 -12 28 C-12.43589957 35.70089243 -12.52792314 45.33043415 -8.0625 51.8125 C-6.10026101 53.89366256 -4.63761474 54.96379421 -2 56 C-1.67 55.34 -1.34 54.68 -1 54 C-0.61328125 54.80824219 -0.2265625 55.61648437 0.171875 56.44921875 C0.69265625 57.51785156 1.2134375 58.58648437 1.75 59.6875 C2.26046875 60.74324219 2.7709375 61.79898438 3.296875 62.88671875 C4.94429762 65.89817707 6.85405829 68.33623323 9 71 C9 71.66 9 72.32 9 73 C7.68 72.67 6.36 72.34 5 72 C5 72.66 5 73.32 5 74 C4.34 74 3.68 74 3 74 C4.86566488 77.62793998 4.86566488 77.62793998 8 80 C8 80.66 8 81.32 8 82 C9.485 82.495 9.485 82.495 11 83 C11 83.66 11 84.32 11 85 C11.5775 85.28875 12.155 85.5775 12.75 85.875 C13.86375 86.431875 13.86375 86.431875 15 87 C16.0828125 87.4640625 16.0828125 87.4640625 17.1875 87.9375 C19 89 19 89 20 92 C8.1630028 88.0047478 -1.49128678 74.93671353 -6.98193359 64.05371094 C-11.89948939 53.35875689 -14.39362656 43.12008306 -14.375 31.375 C-14.37483887 30.41803223 -14.37467773 29.46106445 -14.37451172 28.47509766 C-14.2283487 19.29759839 -13.03162549 8.93878688 -8 1 C-5.07175348 0.02391783 -3.04386724 -0.08226668 0 0 Z " fill="#85D060" transform="translate(100,84)"/>
<path d="M0 0 C0.66 0.33 1.32 0.66 2 1 C1.04309856 3.1346263 0.26577022 4.75543485 -1.46875 6.3515625 C-8.32975013 13.73763917 -6.27632899 27.69692393 -6 37 C-5.67 37 -5.34 37 -5 37 C-4.30404181 39.78980666 -3.61793326 42.58140604 -2.9375 45.375 C-2.63875977 46.56609375 -2.63875977 46.56609375 -2.33398438 47.78125 C-0.88671875 53.7734375 -0.88671875 53.7734375 -2 56 C-3.32 55.67 -4.64 55.34 -6 55 C-6.33 55.66 -6.66 56.32 -7 57 C-7.103125 56.236875 -7.20625 55.47375 -7.3125 54.6875 C-7.73210146 51.98921934 -7.73210146 51.98921934 -9.46875 50.71875 C-14.01982071 45.61040533 -13.36728193 34.61107468 -13 28 C-12.505 26.515 -12.505 26.515 -12 25 C-12.04125 23.80375 -12.0825 22.6075 -12.125 21.375 C-12.20908805 14.85216985 -9.91609479 8.22145972 -6 3 C-5.01 2.67 -4.02 2.34 -3 2 C-3 2.66 -3 3.32 -3 4 C-2.34 3.67 -1.68 3.34 -1 3 C-0.67 2.01 -0.34 1.02 0 0 Z " fill="#7FD658" transform="translate(100,84)"/>
<path d="M0 0 C1.98 0.495 1.98 0.495 4 1 C3.979375 1.886875 3.95875 2.77375 3.9375 3.6875 C3.99286219 6.62169631 4.3305734 9.15493696 5 12 C5.99 11.67 6.98 11.34 8 11 C8.639375 11.185625 9.27875 11.37125 9.9375 11.5625 C12.60357285 12.1280306 13.72275075 11.38261562 16 10 C16 10.66 16 11.32 16 12 C16.83144531 11.91621094 17.66289062 11.83242187 18.51953125 11.74609375 C19.60621094 11.64425781 20.69289062 11.54242188 21.8125 11.4375 C22.89144531 11.33308594 23.97039062 11.22867188 25.08203125 11.12109375 C28 11 28 11 31 12 C31 11.34 31 10.68 31 10 C30.34 10 29.68 10 29 10 C28.731875 9.030625 28.46375 8.06125 28.1875 7.0625 C27.795625 6.051875 27.40375 5.04125 27 4 C26.01 3.67 25.02 3.34 24 3 C24.33 2.01 24.66 1.02 25 0 C27.475 0.495 27.475 0.495 30 1 C30 1.99 30 2.98 30 4 C30.598125 4.226875 31.19625 4.45375 31.8125 4.6875 C34.59348403 6.35609042 35.5641916 8.1283832 37 11 C37 11.66 37 12.32 37 13 C38.65 13 40.3 13 42 13 C42 14.32 42 15.64 42 17 C37.46534937 17.16914327 32.93049926 17.3295197 28.39526367 17.48217773 C26.85611874 17.53517393 25.31705082 17.59046331 23.77807617 17.64819336 C15.77266112 17.94699983 7.95088182 18.22112519 0 17 C-0.19493195 14.72979256 -0.38070418 12.45879711 -0.5625 10.1875 C-0.66691406 8.92292969 -0.77132812 7.65835938 -0.87890625 6.35546875 C-1 3 -1 3 0 0 Z " fill="#7CD356" transform="translate(119,128)"/>
<path d="M0 0 C0.85072458 7.59461153 1.34772888 15.17897543 1.6875 22.8125 C1.74744141 23.91787109 1.80738281 25.02324219 1.86914062 26.16210938 C1.91619141 27.22880859 1.96324219 28.29550781 2.01171875 29.39453125 C2.05772217 30.35206299 2.10372559 31.30959473 2.15112305 32.29614258 C1.98644028 35.24260733 1.23729504 37.33828906 0 40 C-0.99 39.67 -1.98 39.34 -3 39 C-3 39.66 -3 40.32 -3 41 C-3.66 41 -4.32 41 -5 41 C-5 29.45 -5 17.9 -5 6 C-7.31 5.67 -9.62 5.34 -12 5 C-9.57303371 0.26741573 -9.57303371 0.26741573 -7.125 -0.875 C-4.59542424 -1.02379857 -2.45069642 -0.6126741 0 0 Z " fill="#7DD558" transform="translate(123,86)"/>
<path d="M0 0 C0 1.32 0 2.64 0 4 C0.66 4.33 1.32 4.66 2 5 C-2.08420993 6.36140331 -4.14160491 5.61336751 -7.94921875 3.8359375 C-15.45962166 0.77455422 -23.46242556 0.76736478 -31.42944336 1.24926758 C-35.06766042 1.38054113 -36.86363275 1.08625855 -39.9765625 -0.8828125 C-42 -3 -42 -3 -42 -5 C-26.70704696 -6.65649008 -14.22199699 -6.23347102 0 0 Z " fill="#7DD458" transform="translate(187,49)"/>
<path d="M0 0 C0.66 0.33 1.32 0.66 2 1 C2 1.66 2 2.32 2 3 C1.01 3.495 1.01 3.495 0 4 C0.33 4.99 0.66 5.98 1 7 C-5.90650634 10.77903177 -13.53477217 14.70503597 -21.5625 13.4375 C-24.21515917 11.87311126 -25.03685128 10.88944615 -26 8 C-25.01 7.87625 -24.02 7.7525 -23 7.625 C-18.88370049 7.02015599 -14.98032061 6.23527191 -11 5 C-10.67 4.01 -10.34 3.02 -10 2 C-6.75945519 -0.28038338 -3.87544494 -0.25274641 0 0 Z " fill="#81D055" transform="translate(193,172)"/>
<path d="M0 0 C5.28557366 -0.50338797 7.90950339 0.65323004 12 4 C14.34618588 7.73043555 14.26473656 10.54696949 13.66796875 14.80859375 C12.4734743 18.72737378 10.48170974 19.89783563 7 22 C2.61794936 23.34144407 0.08062598 23.04031299 -4 21 C-0.0186217 19.6728739 3.85045227 19.93084087 8 20 C8 19.01 8 18.02 8 17 C7.34 17 6.68 17 6 17 C6 16.34 6 15.68 6 15 C4.02 15.33 2.04 15.66 0 16 C-0.66 14.35 -1.32 12.7 -2 11 C-1.34 10.34 -0.68 9.68 0 9 C0.33 10.32 0.66 11.64 1 13 C1.99 13 2.98 13 4 13 C4.33 11.68 4.66 10.36 5 9 C4.01 8.67 3.02 8.34 2 8 C3.32 8 4.64 8 6 8 C6.33 8.66 6.66 9.32 7 10 C7.33 9.01 7.66 8.02 8 7 C7.34 6.67 6.68 6.34 6 6 C6.99 5.34 7.98 4.68 9 4 C6.03 3.01 3.06 2.02 0 1 C0 0.67 0 0.34 0 0 Z " fill="#7DD758" transform="translate(174,148)"/>
<path d="M0 0 C0.66 0 1.32 0 2 0 C2 3.63 2 7.26 2 11 C15.68290889 11.1609754 29.33065154 10.55612151 43 10 C43.33 9.01 43.66 8.02 44 7 C44.66 7 45.32 7 46 7 C46.66 6.01 47.32 5.02 48 4 C49.32 4.33 50.64 4.66 52 5 C50.47237741 9.27734325 47.92644918 10.88455883 44 13 C40.84101953 13.5447894 37.74971044 13.51461504 34.55078125 13.4609375 C33.65634811 13.46002106 32.76191498 13.45910461 31.84037781 13.4581604 C29.95855368 13.45214113 28.07673837 13.43644566 26.19506836 13.41162109 C23.31132863 13.37498512 20.42887067 13.37060291 17.54492188 13.37109375 C15.71353054 13.36126655 13.8821479 13.34961129 12.05078125 13.3359375 C11.18826248 13.33371185 10.32574371 13.33148621 9.43708801 13.32919312 C8.23520088 13.31005356 8.23520088 13.31005356 7.0090332 13.29052734 C6.30543167 13.28290375 5.60183014 13.27528015 4.87690735 13.26742554 C3 13 3 13 0 11 C-0.29296875 8.3984375 -0.29296875 8.3984375 -0.1875 5.375 C-0.16042969 4.37210938 -0.13335937 3.36921875 -0.10546875 2.3359375 C-0.07066406 1.56507813 -0.03585938 0.79421875 0 0 Z " fill="#94D07B" transform="translate(117,134)"/>
<path d="M0 0 C3.43802206 2.92696473 3.71255632 5.35680555 4.07421875 9.7109375 C3.93290535 14.0693404 2.00212923 16.99787077 -1 20 C-3.1640625 20.1953125 -3.1640625 20.1953125 -5.625 20.125 C-6.44226563 20.10695312 -7.25953125 20.08890625 -8.1015625 20.0703125 C-8.72804687 20.04710937 -9.35453125 20.02390625 -10 20 C-10.33 18.35 -10.66 16.7 -11 15 C-7.72921858 14.03087958 -5.60964568 14 -2 14 C-2.33 10.7 -2.66 7.4 -3 4 C-2.34 3.67 -1.68 3.34 -1 3 C-0.67 2.01 -0.34 1.02 0 0 Z " fill="#050205" transform="translate(181,218)"/>
<path d="M0 0 C6.93 0 13.86 0 21 0 C20 6 20 6 18.0625 7.875 C16 9 16 9 14 9 C13.34 8.34 12.68 7.68 12 7 C9.10776497 6.53603307 9.10776497 6.53603307 5.875 6.375 C4.23144531 6.26285156 4.23144531 6.26285156 2.5546875 6.1484375 C1.71164063 6.09945312 0.86859375 6.05046875 0 6 C0 4.02 0 2.04 0 0 Z " fill="#090506" transform="translate(210,209)"/>
<path d="M0 0 C9.8022311 4.20705779 14.27019175 16.68601556 18 26 C18.6953125 28.953125 18.6953125 28.953125 19 31 C18.01 30.67 17.02 30.34 16 30 C15.19140625 28.07421875 15.19140625 28.07421875 14.5625 25.6875 C13.37933683 21.7248424 12.04133714 19.83858133 9 17 C8.25 14.25 8.25 14.25 8 12 C6.68 11.67 5.36 11.34 4 11 C4 9.68 4 8.36 4 7 C2.77704351 10.66886948 3.58628943 11.55408047 5 15 C4.67 15.66 4.34 16.32 4 17 C2.68227638 15.40012144 1.37098863 13.79494034 0.0625 12.1875 C-0.66839844 11.29417969 -1.39929688 10.40085937 -2.15234375 9.48046875 C-4 7 -4 7 -5 4 C-3 4 -3 4 -1.375 5.5 C-0.92125 5.995 -0.4675 6.49 0 7 C0 4.69 0 2.38 0 0 Z " fill="#89CE6A" transform="translate(210,65)"/>
<path d="M0 0 C1.21236328 0.01353516 1.21236328 0.01353516 2.44921875 0.02734375 C3.37154297 0.04474609 3.37154297 0.04474609 4.3125 0.0625 C4.9375 2.4375 4.9375 2.4375 5.3125 5.0625 C4.6525 5.7225 3.9925 6.3825 3.3125 7.0625 C3.06996187 9.27322977 3.06996187 9.27322977 3.1875 11.6875 C3.21457031 12.91339844 3.21457031 12.91339844 3.2421875 14.1640625 C3.26539063 14.79054687 3.28859375 15.41703125 3.3125 16.0625 C2.3225 16.0625 1.3325 16.0625 0.3125 16.0625 C0.3125 12.7625 0.3125 9.4625 0.3125 6.0625 C-1.3375 6.3925 -2.9875 6.7225 -4.6875 7.0625 C-4.6875 11.6825 -4.6875 16.3025 -4.6875 21.0625 C-5.6775 21.0625 -6.6675 21.0625 -7.6875 21.0625 C-7.6875 14.4625 -7.6875 7.8625 -7.6875 1.0625 C-4.80538698 0.10179566 -2.98899956 -0.04331883 0 0 Z " fill="#1C100C" transform="translate(175.6875,215.9375)"/>
<path d="M0 0 C3.43742918 -0.05802698 6.87473253 -0.09360486 10.3125 -0.125 C11.28896484 -0.14175781 12.26542969 -0.15851563 13.27148438 -0.17578125 C14.20927734 -0.18222656 15.14707031 -0.18867187 16.11328125 -0.1953125 C16.97735596 -0.20578613 17.84143066 -0.21625977 18.73168945 -0.22705078 C21 0 21 0 24 2 C24.34057617 4.79736328 24.34057617 4.79736328 24.29296875 8.3203125 C24.28330078 9.57714844 24.27363281 10.83398438 24.26367188 12.12890625 C24.23853516 13.44761719 24.21339844 14.76632813 24.1875 16.125 C24.17245483 17.46482903 24.15876613 18.80467404 24.14648438 20.14453125 C24.11102872 23.43008842 24.06160849 26.71484582 24 30 C23.67 30 23.34 30 23 30 C22.505 16.14 22.505 16.14 22 2 C17.545 2.495 17.545 2.495 13 3 C12.67 3.99 12.34 4.98 12 6 C11.01 6.33 10.02 6.66 9 7 C8.01 6.34 7.02 5.68 6 5 C6 5.66 6 6.32 6 7 C5.01 7 4.02 7 3 7 C2.01 4.69 1.02 2.38 0 0 Z " fill="#82CB66" transform="translate(101,84)"/>
<path d="M0 0 C4.74784098 0.55391478 6.47963819 2.01502833 9.75 5.4375 C11.49929989 8.40370416 11.76839954 9.99591102 11.625 13.4375 C10.56397451 17.07530167 9.54412785 18.85830506 6.75 21.4375 C3.10171357 23.01817441 0.06109494 23.89638323 -3.75 22.5625 C-4.245 22.19125 -4.74 21.82 -5.25 21.4375 C-2.67452631 20.40731052 -0.16280809 19.41173875 2.5 18.625 C3.2425 18.233125 3.985 17.84125 4.75 17.4375 C5.41347631 14.95349015 5.41347631 14.95349015 5.75 12.4375 C6.74 11.7775 7.73 11.1175 8.75 10.4375 C3.9558263 4.58470263 3.9558263 4.58470263 -2.75 1.9375 C-3.575 2.1025 -4.4 2.2675 -5.25 2.4375 C-3.25 0.4375 -3.25 0.4375 0 0 Z " fill="#8BCC69" transform="translate(136.25,147.5625)"/>
<path d="M0 0 C1 3 1 3 1 5 C1.598125 5.020625 2.19625 5.04125 2.8125 5.0625 C5 6 5 6 6.5 9.1875 C6.73460937 9.81785156 6.96921875 10.44820312 7.2109375 11.09765625 C8.04830096 13.29793875 8.04830096 13.29793875 10.125 16.125 C11.95773096 18.93518748 12.44507016 20.76290928 13 24 C13.66 24.33 14.32 24.66 15 25 C14.67 25.99 14.34 26.98 14 28 C11.33333333 25.33333333 8.66666667 22.66666667 6 20 C5.45214844 19.47792969 4.90429688 18.95585938 4.33984375 18.41796875 C1.05507502 14.94166832 -0.27018745 10.62214615 -1 6 C-1.226875 5.278125 -1.45375 4.55625 -1.6875 3.8125 C-1.790625 3.214375 -1.89375 2.61625 -2 2 C-1.34 1.34 -0.68 0.68 0 0 Z " fill="#80D658" transform="translate(214,71)"/>
<path d="M0 0 C3 1 3 1 4 3 C4.08308638 4.37548156 4.10736016 5.75485796 4.09765625 7.1328125 C4.09282227 8.34130859 4.09282227 8.34130859 4.08789062 9.57421875 C4.07951172 10.41597656 4.07113281 11.25773438 4.0625 12.125 C4.05798828 12.97449219 4.05347656 13.82398438 4.04882812 14.69921875 C4.03702874 16.79950909 4.01909306 18.8997633 4 21 C2.02 21 0.04 21 -2 21 C-2.05404449 18.24973583 -2.09369306 15.50053797 -2.125 12.75 C-2.14175781 11.97269531 -2.15851563 11.19539062 -2.17578125 10.39453125 C-2.23662606 3.27568856 -2.23662606 3.27568856 0 0 Z " fill="#040105" transform="translate(128,217)"/>
<path d="M0 0 C-0.33 1.98 -0.66 3.96 -1 6 C-4.96 5.67 -8.92 5.34 -13 5 C-12.67 6.65 -12.34 8.3 -12 10 C-13.98 10.99 -13.98 10.99 -16 12 C-17.60580182 8.78839637 -17.60399467 5.47474582 -17 2 C-12.67347431 -2.46609103 -5.53490471 -1.84496824 0 0 Z " fill="#040205" transform="translate(106,210)"/>
<path d="M0 0 C-0.33 1.32 -0.66 2.64 -1 4 C-1.66 4 -2.32 4 -3 4 C-3 3.34 -3 2.68 -3 2 C-7.85685781 4.84712354 -9.17720404 9.15761395 -10.6875 14.375 C-11.07212442 17.60584514 -11.02488376 20.76213513 -10.9375 24.01171875 C-11 26 -11 26 -12 28 C-12.23497136 33.58508837 -11.70014168 38.60711132 -10.5625 44.0625 C-9.56142577 49.02955254 -8.67262492 53.97816927 -8 59 C-14.44011397 52.55988603 -14.44105559 39.5660969 -14.5 31 C-14.43149431 21.03070988 -13.4869739 9.65722548 -8 1 C-5.07175348 0.02391783 -3.04386724 -0.08226668 0 0 Z " fill="#92C876" transform="translate(100,84)"/>
<path d="M0 0 C0.33 0 0.66 0 1 0 C1 2.31 1 4.62 1 7 C4.3 7 7.6 7 11 7 C11 8.98 11 10.96 11 13 C5.72 13 0.44 13 -5 13 C-5 9.37 -5 5.74 -5 2 C-4.01 2.495 -4.01 2.495 -3 3 C-2.375 5.5625 -2.375 5.5625 -2 8 C-1.34 8 -0.68 8 0 8 C0 5.36 0 2.72 0 0 Z " fill="#030305" transform="translate(196,225)"/>
<path d="M0 0 C-1.03214077 2.22307242 -1.94675842 3.94266292 -3.625 5.75 C-5.65109763 9.06543248 -5.54527242 12.26525742 -5 16 C-3.16732678 20.14762887 -0.26867309 22.90336234 3 26 C4 27 4 27 4.0625 29.5625 C4.041875 30.366875 4.02125 31.17125 4 32 C4.66 32 5.32 32 6 32 C6 32.66 6 33.32 6 34 C1.05 34 -3.9 34 -9 34 C-9 33.34 -9 32.68 -9 32 C-5.37 31.67 -1.74 31.34 2 31 C0.906875 29.68 -0.18625 28.36 -1.3125 27 C-5.44701609 21.64106332 -8.42159076 16.81807286 -8 9.875 C-7.28234776 5.79486479 -4.69637849 0 0 0 Z " fill="#90C578" transform="translate(144,106)"/>
<path d="M0 0 C4.95 0 9.9 0 15 0 C15.33 1.65 15.66 3.3 16 5 C14.02 5 12.04 5 10 5 C10 5.99 10 6.98 10 8 C11.98 8 13.96 8 16 8 C16 8.66 16 9.32 16 10 C9.84765625 10.09765625 9.84765625 10.09765625 8 10 C7 9 7 9 6.9375 5.4375 C6.958125 4.303125 6.97875 3.16875 7 2 C6.01 2.33 5.02 2.66 4 3 C3.67 5.31 3.34 7.62 3 10 C2.01 10 1.02 10 0 10 C0 6.7 0 3.4 0 0 Z " fill="#28242D" transform="translate(195,255)"/>
<path d="M0 0 C0.66 0.99 1.32 1.98 2 3 C2.99 2.01 3.98 1.02 5 0 C5.24819571 6.57718642 4.31765837 12.56559528 3 19 C2.81308594 19.93457031 2.62617188 20.86914062 2.43359375 21.83203125 C2.29050781 22.54746094 2.14742187 23.26289063 2 24 C-1.21606816 22.39196592 -1.77042489 20.32096722 -3 17 C-2.93936419 13.95394233 -2.34402452 11.09319515 -1.6875 8.125 C-1.53087891 7.34125 -1.37425781 6.5575 -1.21289062 5.75 C-0.82647829 3.8296478 -0.41567388 1.91423152 0 0 Z " fill="#7DD856" transform="translate(199,108)"/>
<path d="M0 0 C0.66 0 1.32 0 2 0 C3.09315246 4.5838914 3.32282625 9.12511007 3.5625 13.8125 C3.60568359 14.60076172 3.64886719 15.38902344 3.69335938 16.20117188 C3.79878321 18.13394215 3.89983094 20.06695026 4 22 C2.0625 21.1875 2.0625 21.1875 0 20 C-0.33 19.01 -0.66 18.02 -1 17 C-1.66 17 -2.32 17 -3 17 C-3.33 13.7 -3.66 10.4 -4 7 C-3.34 7 -2.68 7 -2 7 C-1.855625 6.401875 -1.71125 5.80375 -1.5625 5.1875 C-1.1127561 3.43849596 -0.57107659 1.71322977 0 0 Z " fill="#82D759" transform="translate(227,105)"/>
<path d="M0 0 C0.66 0.33 1.32 0.66 2 1 C0.625 2.5 0.625 2.5 -1 4 C-1.66 4 -2.32 4 -3 4 C-3.2475 4.5775 -3.495 5.155 -3.75 5.75 C-5.16683317 8.3002997 -6.87627537 10.01785701 -9 12 C-5.535 11.505 -5.535 11.505 -2 11 C-2.34342749 14.09084737 -3.25955655 15.32444569 -5.25 17.8125 C-8 20 -8 20 -10.8125 19.8125 C-11.534375 19.544375 -12.25625 19.27625 -13 19 C-13.6875 17.3125 -13.6875 17.3125 -14 15 C-11.35526716 8.8840553 -5.44183219 3.70044589 0 0 Z " fill="#8BD467" transform="translate(115,56)"/>
<path d="M0 0 C0.99 0 1.98 0 3 0 C3 10.56 3 21.12 3 32 C2.01 32 1.02 32 0 32 C0 21.44 0 10.88 0 0 Z " fill="#391309" transform="translate(162,216)"/>
<path d="M0 0 C0.99 0.66 1.98 1.32 3 2 C3 2.66 3 3.32 3 4 C3.99 4 4.98 4 6 4 C6 3.34 6 2.68 6 2 C9.63 2.66 13.26 3.32 17 4 C17.33 5.65 17.66 7.3 18 9 C17.34 8.01 16.68 7.02 16 6 C14.06923522 5.58571654 14.06923522 5.58571654 11.8671875 5.70703125 C11.06152344 5.71669922 10.25585938 5.72636719 9.42578125 5.73632812 C8.16314453 5.7740332 8.16314453 5.7740332 6.875 5.8125 C5.60076172 5.83280273 5.60076172 5.83280273 4.30078125 5.85351562 C2.20025163 5.88891781 0.10004707 5.94272599 -2 6 C-5.04495061 15.51786447 -6.1625427 24.01265413 -6 34 C-6.99 34.495 -6.99 34.495 -8 35 C-8.69981365 9.98814162 -8.69981365 9.98814162 -3.6875 3.23046875 C-2.3125 1.8125 -2.3125 1.8125 0 0 Z " fill="#8ED16F" transform="translate(101,87)"/>
<path d="M0 0 C0.66 0 1.32 0 2 0 C2 2.97 2 5.94 2 9 C5.3 9 8.6 9 12 9 C11.84660156 9.64324219 11.69320312 10.28648437 11.53515625 10.94921875 C10.84253326 14.89767537 10.64199119 18.8131887 10.4375 22.8125 C10.39431641 23.60076172 10.35113281 24.38902344 10.30664062 25.20117188 C10.20121679 27.13394215 10.10016906 29.06695026 10 31 C9.34 31 8.68 31 8 31 C7.92652344 29.30230469 7.92652344 29.30230469 7.8515625 27.5703125 C7.77653486 26.08851661 7.70098703 24.606747 7.625 23.125 C7.5940625 22.37863281 7.563125 21.63226563 7.53125 20.86328125 C7.44356169 16.46526812 7.44356169 16.46526812 5 13 C4.67 12.34 4.34 11.68 4 11 C2.68 11.33 1.36 11.66 0 12 C0 8.04 0 4.08 0 0 Z " fill="#2A191A" transform="translate(116,207)"/>
<path d="M0 0 C0.70125 0.00515625 1.4025 0.0103125 2.125 0.015625 C2.82625 0.01046875 3.5275 0.0053125 4.25 0 C6.125 0.265625 6.125 0.265625 8.125 2.265625 C8.390625 4.359375 8.390625 4.359375 8.375 6.765625 C8.38015625 7.5596875 8.3853125 8.35375 8.390625 9.171875 C8.125 11.265625 8.125 11.265625 6.125 13.265625 C1.0010088 13.83495736 1.0010088 13.83495736 -1.875 13.265625 C-3.9375 11.140625 -3.9375 11.140625 -4.875 8.265625 C-4.42566733 0.62696954 -4.42566733 0.62696954 0 0 Z M0.125 2.265625 C-2.20891203 5.04676556 -2.20891203 5.04676556 -1.5 7.953125 C-1.29375 8.71625 -1.0875 9.479375 -0.875 10.265625 C0.775 10.595625 2.425 10.925625 4.125 11.265625 C6.45891203 8.48448444 6.45891203 8.48448444 5.75 5.578125 C5.54375 4.815 5.3375 4.051875 5.125 3.265625 C3.475 2.935625 1.825 2.605625 0.125 2.265625 Z " fill="#382425" transform="translate(110.875,251.734375)"/>
<path d="M0 0 C5.28 0 10.56 0 16 0 C16 1.65 16 3.3 16 5 C12.7 5 9.4 5 6 5 C6 6.65 6 8.3 6 10 C5.67 10 5.34 10 5 10 C5 8.35 5 6.7 5 5 C4.01 5 3.02 5 2 5 C1.67 5.99 1.34 6.98 1 8 C0.67 8 0.34 8 0 8 C0 5.36 0 2.72 0 0 Z " fill="#010103" transform="translate(191,209)"/>
<path d="M0 0 C0.33 1.65 0.66 3.3 1 5 C0.01 5.66 -0.98 6.32 -2 7 C-2.2502157 10.08365871 -2.2502157 10.08365871 -2 13 C-4.375 13.1875 -4.375 13.1875 -7 13 C-9.32749345 9.50875983 -9.50299316 8.10777749 -9 4 C-6.36160394 0.28670185 -4.49495424 -0.49943936 0 0 Z " fill="#579B38" transform="translate(148,108)"/>
<path d="M0 0 C0.66 0 1.32 0 2 0 C3.32 2.31 4.64 4.62 6 7 C7.32 6.67 8.64 6.34 10 6 C9.67 4.35 9.34 2.7 9 1 C10.70884005 2.62339805 12.37446717 4.29319053 14 6 C14 6.66 14 7.32 14 8 C12.68 7.67 11.36 7.34 10 7 C10 7.66 10 8.32 10 9 C9.34 9 8.68 9 8 9 C9.86566488 12.62793998 9.86566488 12.62793998 13 15 C13 15.66 13 16.32 13 17 C13.99 17.33 14.98 17.66 16 18 C16 18.66 16 19.32 16 20 C16.5775 20.28875 17.155 20.5775 17.75 20.875 C18.4925 21.24625 19.235 21.6175 20 22 C20.721875 22.309375 21.44375 22.61875 22.1875 22.9375 C24 24 24 24 25 27 C13.72613801 23.20825145 5.8117044 11.87272253 0 2 C0 1.34 0 0.68 0 0 Z " fill="#88CD69" transform="translate(95,149)"/>
<path d="M0 0 C1.65 0 3.3 0 5 0 C5.0825 0.61875 5.165 1.2375 5.25 1.875 C5.78035516 4.16150356 5.78035516 4.16150356 7.875 4.9375 C10.74680379 6.37340189 11.58708546 8.17417091 13 11 C13 11.66 13 12.32 13 13 C14.65 13 16.3 13 18 13 C18 14.32 18 15.64 18 17 C14.37 17 10.74 17 7 17 C7.66 15.68 8.32 14.36 9 13 C9.31255131 10.00075191 9.31255131 10.00075191 7.5390625 8.17578125 C6.59160156 7.25345703 6.59160156 7.25345703 5.625 6.3125 C4.99851563 5.68988281 4.37203125 5.06726563 3.7265625 4.42578125 C2.11617006 2.78775127 2.11617006 2.78775127 0 3 C0 2.01 0 1.02 0 0 Z " fill="#6DC54A" transform="translate(143,128)"/>
<path d="M0 0 C0 0.99 0 1.98 0 3 C-0.639375 3.61875 -1.27875 4.2375 -1.9375 4.875 C-4.22777084 6.83143078 -4.22777084 6.83143078 -4.4375 9.625 C-4.7159375 10.800625 -4.7159375 10.800625 -5 12 C-7.5625 13.3125 -7.5625 13.3125 -10 14 C-9.67 15.32 -9.34 16.64 -9 18 C-12 20 -12 20 -14.1875 19.625 C-15.0846875 19.315625 -15.0846875 19.315625 -16 19 C-16.66 19.99 -17.32 20.98 -18 22 C-18.66 21.34 -19.32 20.68 -20 20 C-16.68932483 15.75819744 -13.16316393 12.29842669 -9.0703125 8.8125 C-5.89141739 6.0294673 -2.94449752 3.02731151 0 0 Z " fill="#79CC54" transform="translate(181,120)"/>
<path d="M0 0 C5.75 1.75 5.75 1.75 8 4 C8 5.32 8 6.64 8 8 C8.99 8.33 9.98 8.66 11 9 C10.01 9.495 10.01 9.495 9 10 C9 10.66 9 11.32 9 12 C6.83125748 11.49396008 5.00032373 11.00016187 3 10 C3 9.34 3 8.68 3 8 C2.01 7.67 1.02 7.34 0 7 C-1.1875 4.4375 -1.1875 4.4375 -2 2 C-1.34 2 -0.68 2 0 2 C0 1.34 0 0.68 0 0 Z " fill="#81D45B" transform="translate(105,156)"/>
<path d="M0 0 C0.66 0 1.32 0 2 0 C1.5520266 2.31452922 1.09133539 4.62660039 0.625 6.9375 C0.24214844 8.86916016 0.24214844 8.86916016 -0.1484375 10.83984375 C-0.42945313 11.88269531 -0.71046875 12.92554688 -1 14 C-3.60951236 15.30475618 -5.52701285 15.11301572 -8.4453125 15.09765625 C-10.05986328 15.09282227 -10.05986328 15.09282227 -11.70703125 15.08789062 C-12.83496094 15.07951172 -13.96289062 15.07113281 -15.125 15.0625 C-16.26066406 15.05798828 -17.39632812 15.05347656 -18.56640625 15.04882812 C-21.37765638 15.03701615 -24.1888023 15.02054507 -27 15 C-25 13 -25 13 -22.75341797 12.77294922 C-21.84221191 12.78342285 -20.93100586 12.79389648 -19.9921875 12.8046875 C-19.00605469 12.81113281 -18.01992187 12.81757813 -17.00390625 12.82421875 C-15.45509766 12.84935547 -15.45509766 12.84935547 -13.875 12.875 C-12.83472656 12.88402344 -11.79445312 12.89304688 -10.72265625 12.90234375 C-8.14820908 12.92596253 -5.57421788 12.95889851 -3 13 C-3.0309375 11.91589844 -3.061875 10.83179688 -3.09375 9.71484375 C-2.99126327 5.65380691 -2.02911798 3.46640988 0 0 Z " fill="#8ED173" transform="translate(199,132)"/>
<path d="M0 0 C0.33 0 0.66 0 1 0 C0.65495829 6.34219521 -1.51506141 9.81125806 -5.375 14.75 C-5.87 15.40871094 -6.365 16.06742188 -6.875 16.74609375 C-9.10653787 19.6876664 -11.34464327 22.42728894 -14 25 C-14 23.68 -14 22.36 -14 21 C-13.34 20.67 -12.68 20.34 -12 20 C-11.26924352 17.6859378 -10.59861742 15.35171131 -10 13 C-10.33 12.67 -10.66 12.34 -11 12 C-11 9 -11 9 -10 7 C-9.34 7 -8.68 7 -8 7 C-7.67 6.34 -7.34 5.68 -7 5 C-7 6.32 -7 7.64 -7 9 C-3.46352496 7.32482761 -2.2088437 6.50719183 -0.6875 2.8125 C-0.460625 1.884375 -0.23375 0.95625 0 0 Z " fill="#12101D" transform="translate(231,209)"/>
<path d="M0 0 C0.33 0 0.66 0 1 0 C0.85848172 2.0836309 0.71162064 4.16689938 0.5625 6.25 C0.48128906 7.41015625 0.40007812 8.5703125 0.31640625 9.765625 C0.06636516 12.32160054 -0.37067598 14.53238738 -1 17 C-0.76956136 19.65466049 -0.76956136 19.65466049 0 22 C0.66 22.33 1.32 22.66 2 23 C0.8572081 24.16964602 -0.28931715 25.33564556 -1.4375 26.5 C-2.07558594 27.1496875 -2.71367187 27.799375 -3.37109375 28.46875 C-5 30 -5 30 -6 30 C-5.38627074 23.12199963 -4.10103248 16.6335677 -2.4375 9.9375 C-2.20353516 8.97650391 -1.96957031 8.01550781 -1.72851562 7.02539062 C-1.15732057 4.68232518 -0.58107577 2.34063082 0 0 Z " fill="#86CE62" transform="translate(198,108)"/>
<path d="M0 0 C2.92411712 0.52566442 2.92411712 0.52566442 5.75 -0.6875 C9.79216154 -1.98099169 12.82131181 -1.90683649 16.875 -0.6875 C20.29688193 1.34028188 22.35552321 2.8215017 23.6875 6.64453125 C24.19119938 8.86570561 24.58957764 11.05372646 24.875 13.3125 C22.18719206 11.96859603 22.18396198 10.72398643 21.1875 7.9375 C19.76337222 4.59505084 18.80491034 2.75069374 15.4375 1.25 C12.35951661 0.44000437 10.02295796 0.026322 6.875 0.3125 C6.875 0.9725 6.875 1.6325 6.875 2.3125 C-0.75 3.5625 -0.75 3.5625 -4.125 1.3125 C-6.86372955 0.85477937 -6.86372955 0.85477937 -9.8125 0.6875 C-10.80636719 0.61273438 -11.80023438 0.53796875 -12.82421875 0.4609375 C-13.58347656 0.41195312 -14.34273437 0.36296875 -15.125 0.3125 C-10.0996455 -2.60220561 -5.40926151 -1.19003753 0 0 Z " fill="#90D077" transform="translate(159.125,105.6875)"/>
<path d="M0 0 C0.66 0.33 1.32 0.66 2 1 C1.0360896 3.15026166 0.28912076 4.74701933 -1.5 6.3125 C-3.76352255 8.85896287 -4.2014695 11.74445256 -5 15 C-5.66 14.67 -6.32 14.34 -7 14 C-9.11683841 14.89163577 -9.11683841 14.89163577 -11 16 C-10.45743082 11.4424189 -9.40993792 7.92730624 -7 4 C-4.8125 2.625 -4.8125 2.625 -3 2 C-3 2.66 -3 3.32 -3 4 C-2.34 3.67 -1.68 3.34 -1 3 C-0.67 2.01 -0.34 1.02 0 0 Z " fill="#70C44D" transform="translate(100,84)"/>
<path d="M0 0 C1.06546953 3.1964086 1.07427838 5.65747276 1 9 C1.804375 9.2475 2.60875 9.495 3.4375 9.75 C6 11 6 11 6.875 13 C7 15 7 15 6 17 C4.68 16.67 3.36 16.34 2 16 C1.67 16.66 1.34 17.32 1 18 C0.896875 17.236875 0.79375 16.47375 0.6875 15.6875 C0.2479881 12.98443235 0.2479881 12.98443235 -1.5 11.5625 C-3.7857513 9.18150907 -3.93383946 7.24186649 -4 4 C-2.0625 1.625 -2.0625 1.625 0 0 Z " fill="#73CB4F" transform="translate(92,123)"/>
<path d="M0 0 C2.05078125 0.03255208 4.1015625 0.06510417 6.15234375 0.09765625 C6.15234375 0.75765625 6.15234375 1.41765625 6.15234375 2.09765625 C4.17234375 2.09765625 2.19234375 2.09765625 0.15234375 2.09765625 C2.08489147 4.12223005 3.78393063 5.51871417 6.15234375 7.09765625 C6.40234375 9.66015625 6.40234375 9.66015625 6.15234375 12.09765625 C5.15234375 13.09765625 5.15234375 13.09765625 3.3046875 13.1953125 C1.25390625 13.16276042 -0.796875 13.13020833 -2.84765625 13.09765625 C-2.84765625 12.43765625 -2.84765625 11.77765625 -2.84765625 11.09765625 C-0.86765625 11.09765625 1.11234375 11.09765625 3.15234375 11.09765625 C3.15234375 10.10765625 3.15234375 9.11765625 3.15234375 8.09765625 C1.17234375 7.43765625 -0.80765625 6.77765625 -2.84765625 6.09765625 C-2.89037725 4.4315372 -2.88829457 2.7638274 -2.84765625 1.09765625 C-1.84765625 0.09765625 -1.84765625 0.09765625 0 0 Z " fill="#18151C" transform="translate(169.84765625,251.90234375)"/>
<path d="M0 0 C1.6792238 0.63437344 3.35008418 1.29289322 5 2 C4.67 4.64 4.34 7.28 4 10 C3.01 9.67 2.02 9.34 1 9 C1 8.34 1 7.68 1 7 C0.01 7.33 -0.98 7.66 -2 8 C-4.475 4.04 -4.475 4.04 -7 0 C-4.26965677 -1.36517162 -2.92769462 -0.74894513 0 0 Z " fill="#88D754" transform="translate(206,62)"/>
<path d="M0 0 C1.32 0.66 2.64 1.32 4 2 C3.67 2.99 3.34 3.98 3 5 C1.68 4.67 0.36 4.34 -1 4 C-0.67 5.32 -0.34 6.64 0 8 C-0.66 8 -1.32 8 -2 8 C-2.33 8.99 -2.66 9.98 -3 11 C-5.9375 12.25 -5.9375 12.25 -9 13 C-9.66 12.67 -10.32 12.34 -11 12 C-9.55928394 8.58301375 -7.76769435 6.68041215 -4.9375 4.3125 C-3.86822266 3.40951172 -3.86822266 3.40951172 -2.77734375 2.48828125 C-1.89755859 1.75158203 -1.89755859 1.75158203 -1 1 C-0.67 0.67 -0.34 0.34 0 0 Z " fill="#7ED657" transform="translate(117,56)"/>
<path d="M0 0 C1.134375 0.020625 2.26875 0.04125 3.4375 0.0625 C5.65288462 5.47788462 5.65288462 5.47788462 4.5625 8.4375 C4.19125 8.97375 3.82 9.51 3.4375 10.0625 C0.0625 10.25 0.0625 10.25 -3.5625 10.0625 C-5.5625 7.0625 -5.5625 7.0625 -5.25 3.9375 C-4.32657507 0.07590483 -4.32657507 0.07590483 0 0 Z M-1.5625 2.0625 C-1.8925 3.7125 -2.2225 5.3625 -2.5625 7.0625 C-1.2425 7.3925 0.0775 7.7225 1.4375 8.0625 C2.44861093 5.01336772 2.44861093 5.01336772 1.4375 2.0625 C0.4475 2.0625 -0.5425 2.0625 -1.5625 2.0625 Z " fill="#312433" transform="translate(188.5625,254.9375)"/>
<path d="M0 0 C5.28557366 -0.50338797 7.90950339 0.65323004 12 4 C14.34618588 7.73043555 14.26473656 10.54696949 13.66796875 14.80859375 C12.4734743 18.72737378 10.48170974 19.89783563 7 22 C2.61794936 23.34144407 0.08062598 23.04031299 -4 21 C-1.45721207 20.21760371 0.24492622 20.02084478 2.9375 20.25 C6.17164805 20.25053512 6.17164805 20.25053512 8.875 17.9375 C11.51938231 14.28203034 11.56308865 12.424268 11 8 C10.0285142 5.22946641 9.51470107 4.24898897 6.8359375 2.953125 C6.02382812 2.72109375 5.21171875 2.4890625 4.375 2.25 C3.55773437 2.00765625 2.74046875 1.7653125 1.8984375 1.515625 C1.27195313 1.34546875 0.64546875 1.1753125 0 1 C0 0.67 0 0.34 0 0 Z " fill="#92CD77" transform="translate(174,148)"/>
<path d="M0 0 C3 1 3 1 4.3125 3.3125 C5.14917762 6.58314888 4.56204396 7.13625273 3 10 C2.83275263 13.16695956 2.83275263 13.16695956 3 16 C-1.75 14.125 -1.75 14.125 -4 13 C-4 12.01 -4 11.02 -4 10 C-3.01 9.34 -2.02 8.68 -1 8 C0.33333333 5 0.33333333 5 -1 2 C-0.67 1.34 -0.34 0.68 0 0 Z " fill="#7AD254" transform="translate(204,89)"/>
<path d="M0 0 C2.97 0 5.94 0 9 0 C10.60725635 3.21451269 10.05748185 6.43612536 10 10 C9.01 10 8.02 10 7 10 C7 7.36 7 4.72 7 2 C6.01 2.33 5.02 2.66 4 3 C3.67 5.31 3.34 7.62 3 10 C2.01 10 1.02 10 0 10 C0 6.7 0 3.4 0 0 Z " fill="#241724" transform="translate(141,255)"/>
<path d="M0 0 C0.66 0.33 1.32 0.66 2 1 C1.98839844 1.74765625 1.97679687 2.4953125 1.96484375 3.265625 C1.95582031 4.25046875 1.94679687 5.2353125 1.9375 6.25 C1.92589844 7.22453125 1.91429687 8.1990625 1.90234375 9.203125 C1.98804423 11.65758678 2.29293934 13.66168914 3 16 C1.22992286 16.08114106 -0.54122098 16.13925505 -2.3125 16.1875 C-3.29863281 16.22230469 -4.28476563 16.25710937 -5.30078125 16.29296875 C-8 16 -8 16 -9.85546875 14.48828125 C-10.23316406 13.99714844 -10.61085937 13.50601563 -11 13 C-9.02 13 -7.04 13 -5 13 C-5 12.34 -5 11.68 -5 11 C-3.35 10.67 -1.7 10.34 0 10 C0 6.7 0 3.4 0 0 Z " fill="#20160F" transform="translate(150,222)"/>
<path d="M0 0 C3.63 0.66 7.26 1.32 11 2 C11.33 1.34 11.66 0.68 12 0 C12 0.66 12 1.32 12 2 C12.99 2 13.98 2 15 2 C14.4375 3.9375 14.4375 3.9375 13 6 C9.38431201 6.95508739 6.78378966 7.17038906 3.125 6.375 C2.42375 5.92125 1.7225 5.4675 1 5 C0.67 3.35 0.34 1.7 0 0 Z " fill="#77CD50" transform="translate(136,178)"/>
<path d="M0 0 C6.15234375 -0.09765625 6.15234375 -0.09765625 8 0 C9 1 9 1 9.09765625 3.06640625 C9.08605469 3.89011719 9.07445312 4.71382813 9.0625 5.5625 C9.05347656 6.38878906 9.04445312 7.21507812 9.03515625 8.06640625 C9.02355469 8.70449219 9.01195312 9.34257812 9 10 C8.01 10 7.02 10 6 10 C6 7.36 6 4.72 6 2 C5.01 2 4.02 2 3 2 C3 4.64 3 7.28 3 10 C2.01 10 1.02 10 0 10 C0 6.7 0 3.4 0 0 Z " fill="#382E38" transform="translate(121,255)"/>
<path d="M0 0 C0.94875 0.04125 1.8975 0.0825 2.875 0.125 C3.205 1.775 3.535 3.425 3.875 5.125 C1.895 5.125 -0.085 5.125 -2.125 5.125 C-1.795 5.785 -1.465 6.445 -1.125 7.125 C1.40233235 7.78055119 1.40233235 7.78055119 3.875 8.125 C3.875 8.785 3.875 9.445 3.875 10.125 C0.5 10.25 0.5 10.25 -3.125 10.125 C-5.125 8.125 -5.125 8.125 -5.375 5.125 C-5.02345647 0.90647769 -4.22997422 0.16919897 0 0 Z " fill="#20191F" transform="translate(157.125,254.875)"/>
<path d="M0 0 C3.77152787 0.83811731 5.57258641 1.43471106 7.9375 4.5625 C9.27061396 8.87551576 9.22062124 12.64063841 8 17 C7.34 17.33 6.68 17.66 6 18 C5.95101562 17.28972656 5.90203125 16.57945312 5.8515625 15.84765625 C5.77679688 14.92855469 5.70203125 14.00945312 5.625 13.0625 C5.52058594 11.68771484 5.52058594 11.68771484 5.4140625 10.28515625 C5.20910156 9.15400391 5.20910156 9.15400391 5 8 C4.34 7.67 3.68 7.34 3 7 C3 6.34 3 5.68 3 5 C2.34 4.67 1.68 4.34 1 4 C1 3.34 1 2.68 1 2 C0.34 1.67 -0.32 1.34 -1 1 C-0.67 0.67 -0.34 0.34 0 0 Z " fill="#04050F" transform="translate(150,216)"/>
<path d="M0 0 C1.1055189 0.93590504 2.20935453 1.87379858 3.3125 2.8125 C3.92738281 3.33457031 4.54226562 3.85664063 5.17578125 4.39453125 C6.85424679 5.87172469 8.43882034 7.40039131 10 9 C9.67 9.66 9.34 10.32 9 11 C8.01 11 7.02 11 6 11 C6 12.65 6 14.3 6 16 C3.06279492 17.52299523 0.0831351 18.80100302 -3 20 C-2.57847656 19.54109375 -2.15695313 19.0821875 -1.72265625 18.609375 C-0.90087891 17.68898437 -0.90087891 17.68898437 -0.0625 16.75 C0.48277344 16.14671875 1.02804688 15.5434375 1.58984375 14.921875 C3.09945769 12.86445101 3.71250476 11.52693187 4 9 C2.66666667 5.91666667 2.66666667 5.91666667 1 3 C0.67 2.01 0.34 1.02 0 0 Z " fill="#72C64C" transform="translate(136,149)"/>
<path d="M0 0 C0.66 0 1.32 0 2 0 C2.85410349 2.6690734 2.98839295 4.64999471 2.9375 7.5 C2.99621647 10.78812226 3.26670354 12.29172428 5 15 C3.1875 15.6875 3.1875 15.6875 1 16 C-0.65234375 14.90234375 -0.65234375 14.90234375 -2 13 C-2.109375 10.1171875 -2.109375 10.1171875 -1.75 6.875 C-1.64171875 5.79992187 -1.5334375 4.72484375 -1.421875 3.6171875 C-1 1 -1 1 0 0 Z " fill="#060104" transform="translate(140,220)"/>
<path d="M0 0 C-0.33 0.99 -0.66 1.98 -1 3 C-7.87943085 6.17814011 -15.61947929 6.28211744 -23.0625 6.3125 C-23.89571777 6.31789795 -24.72893555 6.3232959 -25.58740234 6.32885742 C-31.6131042 6.25793053 -31.6131042 6.25793053 -35 4 C-33.81857422 4.03480469 -33.81857422 4.03480469 -32.61328125 4.0703125 C-21.43822192 4.25546141 -10.6965007 0 0 0 Z " fill="#87C86B" transform="translate(183,175)"/>
<path d="M0 0 C1 2 2 4 3 6 C5.52733235 6.65555119 5.52733235 6.65555119 8 7 C8.66 9.31 9.32 11.62 10 14 C8.3125 14.75 8.3125 14.75 6 15 C2.7230706 12.86618551 1.24993996 11.74981988 0 8 C-0.12781786 5.32605036 -0.04391871 2.67904143 0 0 Z " fill="#7FD25D" transform="translate(138,114)"/>
<path d="M0 0 C3.98175544 2.10148204 6.35039045 4.36905358 9 8 C8.278125 7.649375 7.55625 7.29875 6.8125 6.9375 C3.6877295 5.89590983 2.11838004 6.10903428 -1 7 C-0.34 8.32 0.32 9.64 1 11 C-0.29315061 10.04367001 -1.58446853 9.08486149 -2.875 8.125 C-3.59429687 7.59132813 -4.31359375 7.05765625 -5.0546875 6.5078125 C-7 5 -7 5 -9 3 C-6.03 3 -3.06 3 0 3 C0 2.01 0 1.02 0 0 Z " fill="#8ACF6C" transform="translate(201,56)"/>
<path d="M0 0 C0.66 0.33 1.32 0.66 2 1 C2.33 1.99 2.66 2.98 3 4 C3.99 4.33 4.98 4.66 6 5 C6.33 6.65 6.66 8.3 7 10 C6.01 10 5.02 10 4 10 C3.67 10.66 3.34 11.32 3 12 C2.16121545 10.71186658 1.32913217 9.41936744 0.5 8.125 C0.0359375 7.40570313 -0.428125 6.68640625 -0.90625 5.9453125 C-2 4 -2 4 -2 2 C-1.34 2 -0.68 2 0 2 C0 1.34 0 0.68 0 0 Z " fill="#78D253" transform="translate(98,145)"/>
<path d="M0 0 C0.99 0.33 1.98 0.66 3 1 C3.33 2.65 3.66 4.3 4 6 C5.65 6.33 7.3 6.66 9 7 C7.35 8.98 5.7 10.96 4 13 C2.68 12.67 1.36 12.34 0 12 C0 8.04 0 4.08 0 0 Z " fill="#81D755" transform="translate(129,156)"/>
<path d="M0 0 C0.33 0.66 0.66 1.32 1 2 C0.67 2.99 0.34 3.98 0 5 C-0.66 5 -1.32 5 -2 5 C-2.33 7.64 -2.66 10.28 -3 13 C-3.66 13 -4.32 13 -5 13 C-5.66 14.32 -6.32 15.64 -7 17 C-7.66 17 -8.32 17 -9 17 C-9.48521867 13.3675991 -9.02933614 12.04639069 -7.03125 8.88671875 C-6.19959779 7.81085121 -5.35541757 6.74457007 -4.5 5.6875 C-4.07074219 5.13771484 -3.64148438 4.58792969 -3.19921875 4.02148438 C-2.14352235 2.67253898 -1.07317559 1.33508154 0 0 Z " fill="#351D13" transform="translate(218,221)"/>
<path d="M0 0 C-0.99 0.66 -1.98 1.32 -3 2 C-3.41428346 3.93076478 -3.41428346 3.93076478 -3.29296875 6.1328125 C-3.28330078 6.93847656 -3.27363281 7.74414062 -3.26367188 8.57421875 C-3.2259668 9.83685547 -3.2259668 9.83685547 -3.1875 11.125 C-3.17396484 11.97449219 -3.16042969 12.82398438 -3.14648438 13.69921875 C-3.11108219 15.79974837 -3.05727401 17.89995293 -3 20 C-3.99 20 -4.98 20 -6 20 C-6 13.4 -6 6.8 -6 0 C-3 -1 -3 -1 0 0 Z " fill="#0E0F1F" transform="translate(174,217)"/>
<path d="M0 0 C2 1.1875 2 1.1875 4 3 C4.25 5.6875 4.25 5.6875 4 8 C4.66 8 5.32 8 6 8 C6 8.66 6 9.32 6 10 C1.05 10 -3.9 10 -9 10 C-9 9.34 -9 8.68 -9 8 C-3.555 7.505 -3.555 7.505 2 7 C1.01 5.68 0.02 4.36 -1 3 C-0.67 2.01 -0.34 1.02 0 0 Z " fill="#90D26B" transform="translate(144,130)"/>
<path d="M0 0 C1.62566606 0.47690204 3.25051311 0.95659666 4.875 1.4375 C5.77992188 1.70433594 6.68484375 1.97117188 7.6171875 2.24609375 C10 3 10 3 12 4 C12 5.32 12 6.64 12 8 C12.66 8.33 13.32 8.66 14 9 C11.80078125 9.7734375 11.80078125 9.7734375 9 10 C6.54296875 8.1640625 6.54296875 8.1640625 4.1875 5.625 C3.39730469 4.79226562 2.60710937 3.95953125 1.79296875 3.1015625 C0 1 0 1 0 0 Z " fill="#77CD52" transform="translate(175,45)"/>
<path d="M0 0 C0.66 0 1.32 0 2 0 C2 0.66 2 1.32 2 2 C2.99 2 3.98 2 5 2 C5 2.66 5 3.32 5 4 C4.01 4 3.02 4 2 4 C2 5.98 2 7.96 2 10 C2.99 10 3.98 10 5 10 C5 10.66 5 11.32 5 12 C3.35 12 1.7 12 0 12 C-0.38897161 10.37828761 -0.76078298 8.75245075 -1.125 7.125 C-1.43824219 5.76761719 -1.43824219 5.76761719 -1.7578125 4.3828125 C-1.83773437 3.59648437 -1.91765625 2.81015625 -2 2 C-1.34 1.34 -0.68 0.68 0 0 Z " fill="#353440" transform="translate(178,253)"/>
<path d="M0 0 C1.051875 0.4125 2.10375 0.825 3.1875 1.25 C1.8675 2.9 0.5475 4.55 -0.8125 6.25 C-6.5625 5.5 -6.5625 5.5 -8.8125 3.25 C-5.5802484 -0.08019862 -4.70297908 -0.92517621 0 0 Z " fill="#86D55E" transform="translate(176.8125,148.75)"/>
<path d="M0 0 C1.98 1.65 3.96 3.3 6 5 C4.4375 8 4.4375 8 2 11 C-1.75 11.375 -1.75 11.375 -5 11 C-4.525625 10.38125 -4.05125 9.7625 -3.5625 9.125 C-1.97582559 7.09294454 -1.97582559 7.09294454 -1 5 C-0.01 5.33 0.98 5.66 2 6 C2 5.34 2 4.68 2 4 C1.34 4 0.68 4 0 4 C0 2.68 0 1.36 0 0 Z " fill="#80D65C" transform="translate(148,134)"/>
<path d="M0 0 C0.33 0.99 0.66 1.98 1 3 C2.32 2.34 3.64 1.68 5 1 C5.33 2.65 5.66 4.3 6 6 C5.34 6 4.68 6 4 6 C4 5.34 4 4.68 4 4 C2.27219734 4.97022023 2.27219734 4.97022023 1 7 C1.03273548 9.76614782 1.50595672 12.26030547 2 15 C0.68 14.67 -0.64 14.34 -2 14 C-3.25127906 10.45332822 -2.72285053 8.27746562 -1.5625 4.75 C-1.27503906 3.85796875 -0.98757812 2.9659375 -0.69140625 2.046875 C-0.46324219 1.37140625 -0.23507813 0.6959375 0 0 Z " fill="#75C552" transform="translate(220,134)"/>
<path d="M0 0 C0 0.99 0 1.98 0 3 C-0.66 3.66 -1.32 4.32 -2 5 C-2.46486718 8.12196336 -2.46486718 8.12196336 -2.625 11.625 C-2.69976562 12.81351563 -2.77453125 14.00203125 -2.8515625 15.2265625 C-2.90054688 16.14179688 -2.94953125 17.05703125 -3 18 C-5.09933151 16.29603331 -5.92588781 15.39392968 -6.43359375 12.6953125 C-6.44025341 8.31325933 -6.42563853 5.70939755 -4.125 1.875 C-2 0 -2 0 0 0 Z " fill="#3F2515" transform="translate(142,217)"/>
<path d="M0 0 C9.17286652 1.33041575 9.17286652 1.33041575 12.625 4.125 C13.07875 4.74375 13.5325 5.3625 14 6 C11.69 6 9.38 6 7 6 C7 5.34 7 4.68 7 4 C3.94729537 3.84188612 3.94729537 3.84188612 1 5 C1 5.66 1 6.32 1 7 C-0.32 6.34 -1.64 5.68 -3 5 C-2.01 4.34 -1.02 3.68 0 3 C0 2.01 0 1.02 0 0 Z " fill="#89CF68" transform="translate(187,50)"/>
<path d="M0 0 C0 1.65 0 3.3 0 5 C-2 6 -2 6 -5 5.3125 C-8 4 -8 4 -9.375 1.875 C-9.58125 1.25625 -9.7875 0.6375 -10 0 C-3.375 -1.125 -3.375 -1.125 0 0 Z " fill="#75D051" transform="translate(177,180)"/>
<path d="M0 0 C2.10827055 3.16240582 2.33817465 4.50657469 2.625 8.1875 C2.69976562 9.08855469 2.77453125 9.98960937 2.8515625 10.91796875 C2.90054688 11.60503906 2.94953125 12.29210937 3 13 C1 13 -1 13 -3 13 C-2.68817931 11.58318366 -2.37551263 10.16655349 -2.0625 8.75 C-1.88847656 7.96109375 -1.71445313 7.1721875 -1.53515625 6.359375 C-1.052444 4.23121297 -0.53836822 2.11467158 0 0 Z " fill="#7DD45A" transform="translate(224,124)"/>
<path d="M0 0 C0.66 0 1.32 0 2 0 C2.19335938 0.63808594 2.38671875 1.27617188 2.5859375 1.93359375 C2.84632813 2.75988281 3.10671875 3.58617188 3.375 4.4375 C3.63023437 5.26121094 3.88546875 6.08492188 4.1484375 6.93359375 C4.80882227 9.17798016 4.80882227 9.17798016 7 10 C6.67 10.99 6.34 11.98 6 13 C5.44570312 12.43410156 4.89140625 11.86820313 4.3203125 11.28515625 C3.59585938 10.55167969 2.87140625 9.81820312 2.125 9.0625 C1.40570313 8.33160156 0.68640625 7.60070312 -0.0546875 6.84765625 C-1.87027192 4.94332001 -1.87027192 4.94332001 -4 4 C-4 3.34 -4 2.68 -4 2 C-2.68 2.33 -1.36 2.66 0 3 C0 2.01 0 1.02 0 0 Z " fill="#77CA51" transform="translate(222,86)"/>
<path d="M0 0 C3.43678078 2.92590796 3.70536874 5.35373903 4.08203125 9.703125 C3.96466602 12.98935148 2.75132748 15.26792913 1 18 C0.01 18 -0.98 18 -2 18 C-1.505 16.515 -1.505 16.515 -1 15 C-0.34 15 0.32 15 1 15 C1.02715383 13.25008666 1.04646551 11.50005055 1.0625 9.75 C1.07410156 8.77546875 1.08570313 7.8009375 1.09765625 6.796875 C1.01195577 4.34241322 0.70706066 2.33831086 0 0 Z " fill="#070D22" transform="translate(181,218)"/>
<path d="M0 0 C2.83967231 0 5.23735711 0.40267181 8 1 C8 1.66 8 2.32 8 3 C9.32 3.33 10.64 3.66 12 4 C11.01 4.99 10.02 5.98 9 7 C7.02 6.34 5.04 5.68 3 5 C3 4.34 3 3.68 3 3 C2.01 2.67 1.02 2.34 0 2 C0 1.34 0 0.68 0 0 Z " fill="#7FD658" transform="translate(116,170)"/>
<path d="M0 0 C0.99 0 1.98 0 3 0 C3 4.62 3 9.24 3 14 C2.01 14 1.02 14 0 14 C0 9.38 0 4.76 0 0 Z " fill="#281E1B" transform="translate(132,251)"/>
<path d="M0 0 C0.66 0 1.32 0 2 0 C3.37473375 4.27694946 2.38688443 6.83934671 1 11 C0.34 11 -0.32 11 -1 11 C-4 5.25 -4 5.25 -4 3 C-3.01 3 -2.02 3 -1 3 C-0.67 2.01 -0.34 1.02 0 0 Z " fill="#76CB53" transform="translate(177,109)"/>
<path d="M0 0 C0.99 0.33 1.98 0.66 3 1 C1.02 1.99 1.02 1.99 -1 3 C-1 6.3 -1 9.6 -1 13 C-0.34 13 0.32 13 1 13 C1.33 13.99 1.66 14.98 2 16 C-0.75220373 15.13088303 -2.5656698 14.5527839 -4.375 12.25 C-5.24509892 9.11764387 -4.90770018 7.11211491 -4 4 C-1.9375 1.625 -1.9375 1.625 0 0 Z " fill="#432417" transform="translate(91,209)"/>
<path d="M0 0 C2.86697492 1.28519565 4.97607712 2.57129254 7 5 C7 5.66 7 6.32 7 7 C7.99 7.33 8.98 7.66 10 8 C10 8.66 10 9.32 10 10 C10.5775 10.28875 11.155 10.5775 11.75 10.875 C12.4925 11.24625 13.235 11.6175 14 12 C14.721875 12.309375 15.44375 12.61875 16.1875 12.9375 C18 14 18 14 19 17 C14.57483517 15.55980999 11.78496885 13.32035017 8.375 10.1875 C7.43398437 9.33542969 6.49296875 8.48335937 5.5234375 7.60546875 C3.18186352 5.18777549 1.580556 2.95426071 0 0 Z " fill="#94CC74" transform="translate(101,159)"/>
<path d="M0 0 C0.99 1.32 1.98 2.64 3 4 C3.66 3.34 4.32 2.68 5 2 C5.33 3.65 5.66 5.3 6 7 C5.34 7 4.68 7 4 7 C3.67 7.66 3.34 8.32 3 9 C2.67 9.33 2.34 9.66 2 10 C1.76807135 11.51469448 1.58784762 13.03754562 1.4375 14.5625 C1.35371094 15.38878906 1.26992187 16.21507813 1.18359375 17.06640625 C1.12300781 17.70449219 1.06242187 18.34257813 1 19 C0.67 19 0.34 19 0 19 C0 12.73 0 6.46 0 0 Z " fill="#86D762" transform="translate(118,106)"/>
<path d="M0 0 C1.65 1.32 3.3 2.64 5 4 C3.60667426 7.36720387 2.0210714 8.9859524 -1 11 C-2.26264601 6.70700357 -1.62950412 4.12168689 0 0 Z " fill="#89D163" transform="translate(167,153)"/>
<path d="M0 0 C2.69082872 0.17635452 5.32851446 0.61835921 8 1 C8 2.32 8 3.64 8 5 C4.37 5 0.74 5 -3 5 C-1 1 -1 1 0 0 Z " fill="#77CD51" transform="translate(153,140)"/>
<path d="M0 0 C0.33 0.66 0.66 1.32 1 2 C0.67 2.99 0.34 3.98 0 5 C-0.0685495 6.89470816 -0.08480372 8.7916834 -0.0625 10.6875 C-0.05347656 11.68136719 -0.04445313 12.67523438 -0.03515625 13.69921875 C-0.02355469 14.45847656 -0.01195313 15.21773437 0 16 C-1.32 16.33 -2.64 16.66 -4 17 C-3.91297874 14.72844502 -3.80480478 12.45769257 -3.6875 10.1875 C-3.62949219 8.92292969 -3.57148437 7.65835938 -3.51171875 6.35546875 C-3 3 -3 3 -1.45703125 1.05078125 C-0.97621094 0.70402344 -0.49539062 0.35726562 0 0 Z " fill="#060C23" transform="translate(118,221)"/>
<path d="M0 0 C0.99 0.66 1.98 1.32 3 2 C1.60886005 3.27596932 0.21185587 4.54554648 -1.1875 5.8125 C-1.96480469 6.52019531 -2.74210938 7.22789062 -3.54296875 7.95703125 C-9.60803059 13 -9.60803059 13 -13 13 C-13 12.34 -13 11.68 -13 11 C-8.61538462 8 -8.61538462 8 -6 8 C-6 7.34 -6 6.68 -6 6 C-4.37550757 4.29220027 -2.70779973 2.62449243 -1 1 C-0.67 0.67 -0.34 0.34 0 0 Z " fill="#8BCC6F" transform="translate(207,165)"/>
<path d="M0 0 C0.495 0.66 0.99 1.32 1.5 2 C4.76269871 5.91523845 8.35925053 9.43878146 12 13 C11.01 13.33 10.02 13.66 9 14 C6.5 12.25 6.5 12.25 4 10 C3.401875 9.484375 2.80375 8.96875 2.1875 8.4375 C1 7 1 7 1 4 C0.6937566 2.66018514 0.36548445 1.32488113 0 0 Z " fill="#8ACF6F" transform="translate(146,123)"/>
<path d="M0 0 C0.66 0 1.32 0 2 0 C1.30463968 7.09267526 0.09342755 14.17883178 -2 21 C-2.66 21.33 -3.32 21.66 -4 22 C-2.81034913 14.63428929 -1.51922091 7.30518993 0 0 Z " fill="#8AC96F" transform="translate(205,105)"/>
<path d="M0 0 C0.99 0.33 1.98 0.66 3 1 C2.54240047 7.5508985 1.7899856 13.6753842 0 20 C-0.33 20 -0.66 20 -1 20 C-1.9765625 13.9453125 -1.9765625 13.9453125 -2 12 C-1.34 11.34 -0.68 10.68 0 10 C0.24287489 7.55987051 0.24287489 7.55987051 0.125 4.875 C0.10695312 3.96492188 0.08890625 3.05484375 0.0703125 2.1171875 C0.04710937 1.41851562 0.02390625 0.71984375 0 0 Z " fill="#90CD72" transform="translate(208,85)"/>
<path d="M0 0 C2.375 -0.1875 2.375 -0.1875 5 0 C7 3 7 3 6.6875 5.125 C6 7 6 7 5 8 C3.00041636 8.04080783 0.99954746 8.04254356 -1 8 C-1.66 6.35 -2.32 4.7 -3 3 C-2.01 2.67 -1.02 2.34 0 2 C0 1.34 0 0.68 0 0 Z M0 2 C0 3.32 0 4.64 0 6 C1.98 6.495 1.98 6.495 4 7 C4.33 5.68 4.66 4.36 5 3 C3.35 2.67 1.7 2.34 0 2 Z " fill="#8ACE6C" transform="translate(134,155)"/>
<path d="M0 0 C0.66 0 1.32 0 2 0 C1.44712232 3.7381133 0.02221638 5.26300232 -2.8125 7.6875 C-3.49957031 8.28949219 -4.18664062 8.89148438 -4.89453125 9.51171875 C-6.99101007 10.99364534 -8.49199789 11.57730302 -11 12 C-10.29875 11.319375 -9.5975 10.63875 -8.875 9.9375 C-6.15381461 7.23957261 -3.73904225 4.33406548 -1.33203125 1.35546875 C-0.89246094 0.90816406 -0.45289063 0.46085937 0 0 Z " fill="#8DCF70" transform="translate(173,124)"/>
<path d="M0 0 C0.33 0 0.66 0 1 0 C1.79706768 3.49992696 2.11863027 6.7142231 2.09765625 10.30078125 C2.09282227 11.76547852 2.09282227 11.76547852 2.08789062 13.25976562 C2.07951172 14.26716797 2.07113281 15.27457031 2.0625 16.3125 C2.05798828 17.33923828 2.05347656 18.36597656 2.04882812 19.42382812 C2.03708184 21.94927882 2.02065565 24.47460905 2 27 C1.67 27 1.34 27 1 27 C0.93941406 25.98679687 0.87882813 24.97359375 0.81640625 23.9296875 C0.73193296 22.57811486 0.64728843 21.22655291 0.5625 19.875 C0.52318359 19.20984375 0.48386719 18.5446875 0.44335938 17.859375 C0.24659125 14.7716291 -0.03947403 11.76973484 -0.5625 8.71875 C-1.06784664 5.57838161 -0.66267138 3.09246642 0 0 Z " fill="#93C878" transform="translate(229,98)"/>
<path d="M0 0 C2.31 0 4.62 0 7 0 C7.33 1.65 7.66 3.3 8 5 C5.69 5.33 3.38 5.66 1 6 C0.67 4.02 0.34 2.04 0 0 Z " fill="#11111B" transform="translate(203,255)"/>
<path d="M0 0 C3 1 3 1 4 3 C4.08308638 4.37548156 4.10736016 5.75485796 4.09765625 7.1328125 C4.09282227 8.34130859 4.09282227 8.34130859 4.08789062 9.57421875 C4.07951172 10.41597656 4.07113281 11.25773438 4.0625 12.125 C4.05798828 12.97449219 4.05347656 13.82398438 4.04882812 14.69921875 C4.03702874 16.79950909 4.01909306 18.8997633 4 21 C3.67 21 3.34 21 3 21 C2.86722656 19.90300781 2.73445312 18.80601562 2.59765625 17.67578125 C2.41937015 16.22134199 2.2409792 14.76691558 2.0625 13.3125 C1.97548828 12.59126953 1.88847656 11.87003906 1.79882812 11.12695312 C1.33686195 7.37989416 0.80832321 3.69207089 0 0 Z " fill="#080F1F" transform="translate(128,217)"/>
<path d="M0 0 C6.75 1.75 6.75 1.75 9 4 C7 7 7 7 4.375 7.6875 C3.199375 7.8421875 3.199375 7.8421875 2 8 C2 5 2 5 3 3 C2.01 2.01 1.02 1.02 0 0 Z " fill="#82D55D" transform="translate(169,105)"/>
<path d="M0 0 C0.66 0.33 1.32 0.66 2 1 C1.2884375 1.7115625 1.2884375 1.7115625 0.5625 2.4375 C-1.68076096 6.11644797 -1.73739578 9.7621112 -2 14 C-1.01 14.33 -0.02 14.66 1 15 C1 15.99 1 16.98 1 18 C0.34 18 -0.32 18 -1 18 C-4.27991956 12.75212871 -4.32104781 9.85035459 -3 4 C-1.4375 1.5 -1.4375 1.5 0 0 Z " fill="#8BC972" transform="translate(129,150)"/>
<path d="M0 0 C0.33 0 0.66 0 1 0 C1.66 4.29 2.32 8.58 3 13 C0.525 12.01 0.525 12.01 -2 11 C-2.28571429 3.57142857 -2.28571429 3.57142857 0 0 Z " fill="#86CE69" transform="translate(94,121)"/>
<path d="M0 0 C0.66 0 1.32 0 2 0 C1.67 2.97 1.34 5.94 1 9 C-0.32 8.67 -1.64 8.34 -3 8 C-2.25 2.25 -2.25 2.25 0 0 Z " fill="#7ECA60" transform="translate(144,110)"/>
<path d="M0 0 C0.99 0 1.98 0 3 0 C3 0.99 3 1.98 3 3 C3.99 3.33 4.98 3.66 6 4 C5.01 4.495 5.01 4.495 4 5 C4 5.66 4 6.32 4 7 C1.83125748 6.49396008 0.00032373 6.00016187 -2 5 C-1.34 3.35 -0.68 1.7 0 0 Z " fill="#77D151" transform="translate(110,161)"/>
<path d="M0 0 C1.4606285 2.64738916 2 3.89448334 2 7 C-0.5 9.6875 -0.5 9.6875 -3 12 C-3.08131463 10.56344146 -3.13933559 9.1255517 -3.1875 7.6875 C-3.22230469 6.88699219 -3.25710937 6.08648437 -3.29296875 5.26171875 C-2.93801608 2.52148416 -2.10633718 1.70828921 0 0 Z " fill="#75CF4F" transform="translate(121,87)"/>
<path d="M0 0 C0.66 0 1.32 0 2 0 C2.33 0.66 2.66 1.32 3 2 C6.04386724 2.08226668 8.07175348 1.97608217 11 1 C10.34 2.32 9.68 3.64 9 5 C7.72125 5.061875 6.4425 5.12375 5.125 5.1875 C4.40570313 5.22230469 3.68640625 5.25710938 2.9453125 5.29296875 C2.30335937 5.19628906 1.66140625 5.09960938 1 5 C0.34 4.01 -0.32 3.02 -1 2 C-0.67 1.34 -0.34 0.68 0 0 Z " fill="#211317" transform="translate(108,260)"/>
<path d="M0 0 C0.721875 0.309375 1.44375 0.61875 2.1875 0.9375 C4.80307309 1.92560539 7.25118982 2.5287754 10 3 C10.33 2.34 10.66 1.68 11 1 C12.32 1.66 13.64 2.32 15 3 C13 5 13 5 10.46875 5.1171875 C8.99921875 4.99730469 8.99921875 4.99730469 7.5 4.875 C6.5203125 4.81054688 5.540625 4.74609375 4.53125 4.6796875 C2 4 2 4 0.65625 1.9453125 C0.33140625 0.98238281 0.33140625 0.98238281 0 0 Z " fill="#87D361" transform="translate(167,164)"/>
<path d="M0 0 C0 0.99 0 1.98 0 3 C-0.639375 3.61875 -1.27875 4.2375 -1.9375 4.875 C-4.27990815 7.28839022 -4.63515416 8.7163874 -5 12 C-5.99 11.67 -6.98 11.34 -8 11 C-10.16715557 11.87483915 -10.16715557 11.87483915 -12 13 C-8.19524578 8.43969176 -4.25030379 4.14910608 0 0 Z " fill="#69BE44" transform="translate(181,120)"/>
<path d="M0 0 C1.98 0.66 3.96 1.32 6 2 C4.515 4.475 4.515 4.475 3 7 C3.99 7.33 4.98 7.66 6 8 C3.03 7.505 3.03 7.505 0 7 C0 4.69 0 2.38 0 0 Z " fill="#2A1F17" transform="translate(86,230)"/>
<path d="M0 0 C0.33 0.99 0.66 1.98 1 3 C1.66 3.33 2.32 3.66 3 4 C-0.79541663 6.21399303 -4.75629421 7.00980198 -9 8 C-9 7.34 -9 6.68 -9 6 C-7.03125 4.4921875 -7.03125 4.4921875 -4.5 2.875 C-3.6646875 2.33617187 -2.829375 1.79734375 -1.96875 1.2421875 C-1.3190625 0.83226562 -0.669375 0.42234375 0 0 Z " fill="#8CD463" transform="translate(198,165)"/>
<path d="M0 0 C1.32 0 2.64 0 4 0 C4.33 1.98 4.66 3.96 5 6 C2 8 2 8 -0.6875 7.625 C-1.450625 7.41875 -2.21375 7.2125 -3 7 C-3.625 5.125 -3.625 5.125 -4 3 C-3.34 2.34 -2.68 1.68 -2 1 C-1.67 2.32 -1.34 3.64 -1 5 C-0.01 5 0.98 5 2 5 C2.33 3.68 2.66 2.36 3 1 C2.01 0.67 1.02 0.34 0 0 Z " fill="#87C66A" transform="translate(176,156)"/>
<path d="M0 0 C1.32 0.33 2.64 0.66 4 1 C3.375 2.875 3.375 2.875 2 5 C-1.125 6.25 -1.125 6.25 -4 7 C-4.33 6.34 -4.66 5.68 -5 5 C-4.67 4.34 -4.34 3.68 -4 3 C-3.34 3 -2.68 3 -2 3 C-1.34 2.01 -0.68 1.02 0 0 Z " fill="#89D46A" transform="translate(165,138)"/>
<path d="M0 0 C0.33 0 0.66 0 1 0 C1 3.63 1 7.26 1 11 C3.97 11 6.94 11 10 11 C9.01 11.99 8.02 12.98 7 14 C3.3125 13.6875 3.3125 13.6875 0 13 C0 8.71 0 4.42 0 0 Z " fill="#8DCD77" transform="translate(124,127)"/>
<path d="M0 0 C0.66 0 1.32 0 2 0 C2.33 0.99 2.66 1.98 3 3 C0.69 5.31 -1.62 7.62 -4 10 C-4.33 9.34 -4.66 8.68 -5 8 C-3.62292893 4.85240898 -2.43840236 2.43840236 0 0 Z " fill="#7BD755" transform="translate(95,86)"/>
<path d="M0 0 C0.66 0.33 1.32 0.66 2 1 C0.625 2.5 0.625 2.5 -1 4 C-1.66 4 -2.32 4 -3 4 C-3.226875 4.556875 -3.45375 5.11375 -3.6875 5.6875 C-5.37550036 8.66159588 -7.46676517 10.72008865 -10 13 C-10.66 13 -11.32 13 -12 13 C-10.44997253 9.11602311 -7.99523379 6.97020381 -4.875 4.25 C-3.96492188 3.45078125 -3.05484375 2.6515625 -2.1171875 1.828125 C-1.06917969 0.92320313 -1.06917969 0.92320313 0 0 Z " fill="#8ACC70" transform="translate(115,56)"/>
<path d="M0 0 C1.32 0.33 2.64 0.66 4 1 C3.34 1 2.68 1 2 1 C2.33 1.66 2.66 2.32 3 3 C3.04022391 5.3329866 3.04320247 7.66706666 3 10 C2.01 10 1.02 10 0 10 C0 6.7 0 3.4 0 0 Z " fill="#352738" transform="translate(141,255)"/>
<path d="M0 0 C1.41681634 0.31182069 2.83344651 0.62448737 4.25 0.9375 C5.43335938 1.19853516 5.43335938 1.19853516 6.640625 1.46484375 C8.76878703 1.947556 10.88532842 2.46163178 13 3 C13 3.66 13 4.32 13 5 C11.39479996 4.93976735 9.79065673 4.85091401 8.1875 4.75 C6.84751953 4.68039063 6.84751953 4.68039063 5.48046875 4.609375 C3 4 3 4 1.17578125 1.953125 C0.78777344 1.30859375 0.39976562 0.6640625 0 0 Z " fill="#89C96D" transform="translate(134,175)"/>
<path d="M0 0 C1.98 0.495 1.98 0.495 4 1 C4 4 4 7 4 10 C2.35 8.68 0.7 7.36 -1 6 C-0.67 4.02 -0.34 2.04 0 0 Z " fill="#76CD4F" transform="translate(119,128)"/>
<path d="M0 0 C0.66 0 1.32 0 2 0 C2.2236337 1.41433206 2.42826476 2.83167618 2.625 4.25 C2.74101562 5.03890625 2.85703125 5.8278125 2.9765625 6.640625 C3.00319395 9.32152459 2.36592084 10.72694089 1 13 C0.67 13 0.34 13 0 13 C0 8.71 0 4.42 0 0 Z " fill="#090B2D" transform="translate(156,221)"/>
<path d="M0 0 C1.48206495 0.254496 2.96068615 0.52911762 4.4375 0.8125 C5.67306641 1.03873047 5.67306641 1.03873047 6.93359375 1.26953125 C7.95646484 1.63111328 7.95646484 1.63111328 9 2 C9.33 2.99 9.66 3.98 10 5 C11.65 5 13.3 5 15 5 C15 5.66 15 6.32 15 7 C9.14727744 6.54979057 4.91779881 3.96160773 0 1 C0 0.67 0 0.34 0 0 Z " fill="#8FCE74" transform="translate(120,176)"/>
<path d="M0 0 C1.98 0 3.96 0 6 0 C5.67 1.65 5.34 3.3 5 5 C3.35 4.67 1.7 4.34 0 4 C0 2.68 0 1.36 0 0 Z " fill="#55983D" transform="translate(156,113)"/>
<path d="M0 0 C0.66 0 1.32 0 2 0 C3.0625 1.8125 3.0625 1.8125 4 4 C3.67 4.99 3.34 5.98 3 7 C1.35 6.67 -0.3 6.34 -2 6 C-2 4.68 -2 3.36 -2 2 C-1.34 2 -0.68 2 0 2 C0 1.34 0 0.68 0 0 Z " fill="#78CE51" transform="translate(207,159)"/>
<path d="M0 0 C2.62187494 1.04874998 3.79371361 1.64931313 5.25 4.125 C5.4975 4.74375 5.745 5.3625 6 6 C2.125 8 2.125 8 1 8 C0.67 5.36 0.34 2.72 0 0 Z " fill="#76CB52" transform="translate(118,103)"/>
<path d="M0 0 C0.66 0 1.32 0 2 0 C3 7.75 3 7.75 3 10 C2.01 10 1.02 10 0 10 C0 6.7 0 3.4 0 0 Z " fill="#463236" transform="translate(137,255)"/>
<path d="M0 0 C0.99 0.33 1.98 0.66 3 1 C2.67 3.31 2.34 5.62 2 8 C1.01 7.67 0.02 7.34 -1 7 C-1.625 4.625 -1.625 4.625 -2 2 C-1.34 1.34 -0.68 0.68 0 0 Z " fill="#79D156" transform="translate(208,64)"/>
<path d="M0 0 C0.99 0.33 1.98 0.66 3 1 C2.3503125 1.5878125 2.3503125 1.5878125 1.6875 2.1875 C-0.26366224 4.28319278 -1.59010162 6.51589333 -3 9 C-3.99 8.67 -4.98 8.34 -6 8 C-4.55746343 4.63408134 -2.66735273 2.48952921 0 0 Z " fill="#78D151" transform="translate(112,60)"/>
<path d="M0 0 C2.97 0.495 2.97 0.495 6 1 C3.14723863 3.93200474 0.34920216 6.64315404 -3 9 C-2.34 7.35 -1.68 5.7 -1 4 C-0.34 4 0.32 4 1 4 C0.67 2.68 0.34 1.36 0 0 Z " fill="#8CD070" transform="translate(116,60)"/>
<path d="M0 0 C0.99 0.33 1.98 0.66 3 1 C5.367713 6.97565663 5.367713 6.97565663 4.125 10.4375 C3.75375 10.953125 3.3825 11.46875 3 12 C2.67 12 2.34 12 2 12 C2 8.7 2 5.4 2 2 C1.34 2 0.68 2 0 2 C0 1.34 0 0.68 0 0 Z " fill="#0D1734" transform="translate(102,223)"/>
<path d="M0 0 C1.0625 1.8125 1.0625 1.8125 2 4 C1.67 4.99 1.34 5.98 1 7 C0.93062938 9.22818441 0.91542916 11.45834524 0.9375 13.6875 C0.94652344 14.86699219 0.95554687 16.04648438 0.96484375 17.26171875 C0.97644531 18.16535156 0.98804687 19.06898437 1 20 C-1.07182145 16.59336868 -1.24183505 13.95164035 -1.1875 10 C-1.18105469 8.96875 -1.17460938 7.9375 -1.16796875 6.875 C-1.02449792 4.41931318 -0.7046041 2.34492245 0 0 Z " fill="#8ED36A" transform="translate(87,105)"/>
<path d="M0 0 C2.97 1.98 2.97 1.98 6 4 C5.67 5.65 5.34 7.3 5 9 C1.96130589 7.48065294 1.35589694 5.01995228 0 2 C0 1.34 0 0.68 0 0 Z " fill="#6BC64A" transform="translate(196,123)"/>
<path d="M0 0 C2.43873271 4.35487984 4 8.99365563 4 14 C1.31566952 11.54908957 0.08210259 9.71758616 -0.09765625 5.95703125 C-0.06510417 3.97135417 -0.03255208 1.98567708 0 0 Z " fill="#79C855" transform="translate(138,114)"/>
<path d="M0 0 C0.99 0 1.98 0 3 0 C2.67 1.65 2.34 3.3 2 5 C-0.64 5 -3.28 5 -6 5 C-6 4.34 -6 3.68 -6 3 C-4.02 3 -2.04 3 0 3 C0 2.01 0 1.02 0 0 Z " fill="#232229" transform="translate(173,260)"/>
<path d="M0 0 C0.66 0 1.32 0 2 0 C2 0.66 2 1.32 2 2 C2.99 2 3.98 2 5 2 C5 2.66 5 3.32 5 4 C3.35 3.67 1.7 3.34 0 3 C0 5.31 0 7.62 0 10 C-0.33 10 -0.66 10 -1 10 C-1.9765625 3.9453125 -1.9765625 3.9453125 -2 2 C-1.34 1.34 -0.68 0.68 0 0 Z " fill="#1A1720" transform="translate(178,253)"/>
<path d="M0 0 C0.66 0 1.32 0 2 0 C4.44045073 3.45730521 5.78065514 6.96678237 7 11 C3.17330957 7.57611908 1.27721526 4.99275057 0 0 Z " fill="#87C16C" transform="translate(137,122)"/>
<path d="M0 0 C0.66 0 1.32 0 2 0 C3.625 2.5 3.625 2.5 5 5 C3.625 6.5 3.625 6.5 2 8 C1.34 8 0.68 8 0 8 C0 5.36 0 2.72 0 0 Z " fill="#75CF4D" transform="translate(89,102)"/>
<path d="M0 0 C3.3 0 6.6 0 10 0 C7.01353231 1.99097846 4.40312738 2.94124926 1 4 C0.67 2.68 0.34 1.36 0 0 Z " fill="#7FCA6B" transform="translate(189,84)"/>
<path d="M0 0 C2.31 0 4.62 0 7 0 C7.33 0.99 7.66 1.98 8 3 C7.01 3.33 6.02 3.66 5 4 C5 3.34 5 2.68 5 2 C3.35 2.33 1.7 2.66 0 3 C0 2.01 0 1.02 0 0 Z " fill="#16111C" transform="translate(185,255)"/>
<path d="M0 0 C0.99 0 1.98 0 3 0 C3 1.65 3 3.3 3 5 C1.02 5 -0.96 5 -3 5 C-1.6875 2.5 -1.6875 2.5 0 0 Z " fill="#090D17" transform="translate(204,209)"/>
<path d="M0 0 C2.31 0.33 4.62 0.66 7 1 C7 1.66 7 2.32 7 3 C6.01 3.495 6.01 3.495 5 4 C4.67 4.66 4.34 5.32 4 6 C2 4.6875 2 4.6875 0 3 C0 2.01 0 1.02 0 0 Z " fill="#75CB53" transform="translate(188,172)"/>
<path d="M0 0 C1.31223496 3.93670488 0.24296256 6.12488144 -1 10 C-2.32 9.67 -3.64 9.34 -5 9 C-3.35 6.03 -1.7 3.06 0 0 Z " fill="#89C76D" transform="translate(217,141)"/>
<path d="M0 0 C0.99 0.99 1.98 1.98 3 3 C2.875 5.0625 2.875 5.0625 2 7 C1.01 7.66 0.02 8.32 -1 9 C-0.67 6.03 -0.34 3.06 0 0 Z " fill="#8DD163" transform="translate(193,129)"/>
<path d="M0 0 C0.99 0 1.98 0 3 0 C3.66 1.65 4.32 3.3 5 5 C4.2575 4.95875 3.515 4.9175 2.75 4.875 C-0.08758952 5.00398134 -1.58773938 5.57051222 -4 7 C-2.68 4.69 -1.36 2.38 0 0 Z " fill="#6ABD45" transform="translate(186,84)"/>
<path d="M0 0 C3 1 3 1 4 3 C3.34 3 2.68 3 2 3 C2 4.32 2 5.64 2 7 C0.68 6.67 -0.64 6.34 -2 6 C-2 3 -2 3 0 1 C0 0.67 0 0.34 0 0 Z " fill="#7CC85C" transform="translate(190,52)"/>
<path d="M0 0 C2.97 0.33 5.94 0.66 9 1 C8.34 2.32 7.68 3.64 7 5 C6.01 5.33 5.02 5.66 4 6 C2.68 4.02 1.36 2.04 0 0 Z " fill="#6BC449" transform="translate(168,153)"/>
<path d="M0 0 C0.33 0 0.66 0 1 0 C1.0825 0.78375 1.165 1.5675 1.25 2.375 C1.72806339 5.14749104 1.72806339 5.14749104 4.0625 6.3125 C4.701875 6.539375 5.34125 6.76625 6 7 C6 7.33 6 7.66 6 8 C3.625 8.1875 3.625 8.1875 1 8 C-1 5 -1 5 -0.625 2.3125 C-0.41875 1.549375 -0.2125 0.78625 0 0 Z " fill="#4B9A2D" transform="translate(140,113)"/>
<path d="M0 0 C1.32 0 2.64 0 4 0 C4 0.99 4 1.98 4 3 C1.69 3.66 -0.62 4.32 -3 5 C-3 4.34 -3 3.68 -3 3 C-2.34 3 -1.68 3 -1 3 C-0.67 2.01 -0.34 1.02 0 0 Z " fill="#8BCF68" transform="translate(187,178)"/>
<path d="M0 0 C0.99 0.33 1.98 0.66 3 1 C3.33 2.65 3.66 4.3 4 6 C3.01 6 2.02 6 1 6 C0.67 6.66 0.34 7.32 0 8 C-0.66 7.01 -1.32 6.02 -2 5 C-1.01 5 -0.02 5 1 5 C0.67 3.35 0.34 1.7 0 0 Z " fill="#7FD75A" transform="translate(101,149)"/>
<path d="M0 0 C0.33 0.99 0.66 1.98 1 3 C-0.9375 5.6875 -0.9375 5.6875 -3 8 C-3.99 7.34 -4.98 6.68 -6 6 C-4.02 4.02 -2.04 2.04 0 0 Z " fill="#6EC548" transform="translate(198,132)"/>
<path d="M0 0 C0.33 0.99 0.66 1.98 1 3 C-2.3125 3.6875 -2.3125 3.6875 -6 4 C-6.99 3.01 -7.98 2.02 -9 1 C-6.03 1.33 -3.06 1.66 0 2 C0 1.34 0 0.68 0 0 Z " fill="#89D853" transform="translate(147,178)"/>
<path d="M0 0 C0.28875 0.598125 0.5775 1.19625 0.875 1.8125 C2.04742026 4.19327792 2.04742026 4.19327792 4 7 C-0.75 5.125 -0.75 5.125 -3 4 C-3 3.01 -3 2.02 -3 1 C-2.01 0.67 -1.02 0.34 0 0 Z " fill="#6BBA4B" transform="translate(203,98)"/>
<path d="M0 0 C1.65 0 3.3 0 5 0 C4.67 1.32 4.34 2.64 4 4 C3.34 4 2.68 4 2 4 C2 3.34 2 2.68 2 2 C0.02 2.99 0.02 2.99 -2 4 C-1.34 2.68 -0.68 1.36 0 0 Z " fill="#82CE68" transform="translate(95,84)"/>
<path d="M0 0 C-1.28913487 0.67154933 -2.58140204 1.33708859 -3.875 2 C-4.59429687 2.37125 -5.31359375 2.7425 -6.0546875 3.125 C-8 4 -8 4 -10 4 C-10 3.01 -10 2.02 -10 1 C-6.16112237 -0.48320272 -3.93795909 -1.22419163 0 0 Z " fill="#99D27E" transform="translate(134,56)"/>
<path d="M0 0 C1.32 0.33 2.64 0.66 4 1 C4 2.65 4 4.3 4 6 C3.01 6 2.02 6 1 6 C0.67 4.02 0.34 2.04 0 0 Z " fill="#0B0B1D" transform="translate(229,232)"/>
<path d="M0 0 C0.66 0 1.32 0 2 0 C2 1.32 2 2.64 2 4 C2.66 4 3.32 4 4 4 C3.67 4.99 3.34 5.98 3 7 C2.34 7 1.68 7 1 7 C0.34 5.02 -0.32 3.04 -1 1 C-0.67 0.67 -0.34 0.34 0 0 Z " fill="#4AAF30" transform="translate(175,113)"/>
<path d="M0 0 C0.99 0.99 1.98 1.98 3 3 C2.34 4.32 1.68 5.64 1 7 C0.34 7 -0.32 7 -1 7 C-1.04254356 5.00045254 -1.04080783 2.99958364 -1 1 C-0.67 0.67 -0.34 0.34 0 0 Z " fill="#84CB66" transform="translate(202,92)"/>
<path d="M0 0 C0.99 0 1.98 0 3 0 C2.67 1.98 2.34 3.96 2 6 C1.01 6 0.02 6 -1 6 C-0.67 4.02 -0.34 2.04 0 0 Z " fill="#101229" transform="translate(103,210)"/>
<path d="M0 0 C4.875 2.625 4.875 2.625 6 6 C4.35 5.67 2.7 5.34 1 5 C0.67 3.35 0.34 1.7 0 0 Z " fill="#70C748" transform="translate(136,178)"/>
<path d="M0 0 C0.66 0.33 1.32 0.66 2 1 C1.34 2.98 0.68 4.96 0 7 C-0.66 6.67 -1.32 6.34 -2 6 C-2 4.35 -2 2.7 -2 1 C-1.34 0.67 -0.68 0.34 0 0 Z " fill="#7CD755" transform="translate(144,159)"/>
<path d="M0 0 C1.32 0.33 2.64 0.66 4 1 C4.33 2.32 4.66 3.64 5 5 C4.01 5 3.02 5 2 5 C1.34 4.34 0.68 3.68 0 3 C0 2.01 0 1.02 0 0 Z " fill="#8ED453" transform="translate(94,133)"/>
<path d="M0 0 C1.32 0.33 2.64 0.66 4 1 C2.68 2.65 1.36 4.3 0 6 C-0.66 5.67 -1.32 5.34 -2 5 C-1.34 3.35 -0.68 1.7 0 0 Z " fill="#77B059" transform="translate(163,112)"/>
<path d="M0 0 C0.66 0 1.32 0 2 0 C4 2 4 2 4 5 C3.01 5.33 2.02 5.66 1 6 C0.67 4.02 0.34 2.04 0 0 Z " fill="#74CD4E" transform="translate(216,79)"/>
<path d="M0 0 C1.65 1.65 3.3 3.3 5 5 C3.35 5.33 1.7 5.66 0 6 C0 4.02 0 2.04 0 0 Z " fill="#73C951" transform="translate(124,51)"/>
<path d="M0 0 C0.99 0.33 1.98 0.66 3 1 C2.01 1.33 1.02 1.66 0 2 C0 1.34 0 0.68 0 0 Z " fill="#3F3235" transform="translate(137,251)"/>
</svg>
